<?xml version="1.0" encoding="UTF-8"?>
<!DOCTYPE svg PUBLIC "-//W3C//DTD SVG 1.1//EN" "http://www.w3.org/Graphics/SVG/1.1/DTD/svg11.dtd">
<!-- Creator: CorelDRAW 2020 (64-Bit) -->
<svg xmlns="http://www.w3.org/2000/svg" xml:space="preserve" width="1600mm" height="600mm" version="1.1" style="shape-rendering:geometricPrecision; text-rendering:geometricPrecision; image-rendering:optimizeQuality; fill-rule:evenodd; clip-rule:evenodd"
viewBox="0 0 160000 60000"
 xmlns:xlink="http://www.w3.org/1999/xlink"
 xmlns:xodm="http://www.corel.com/coreldraw/odm/2003">
 <defs>
  <style type="text/css">
   <![CDATA[
    .fil7 {fill:#0056B6}
    .fil8 {fill:#008A80}
    .fil10 {fill:#008B80}
    .fil1 {fill:#008F7C}
    .fil11 {fill:#010117}
    .fil12 {fill:#050901}
    .fil13 {fill:#060A01}
    .fil4 {fill:#292020}
    .fil5 {fill:#292121}
    .fil9 {fill:#373434}
    .fil14 {fill:#393637}
    .fil0 {fill:#A9D0DF}
    .fil3 {fill:#D20B29}
    .fil2 {fill:#F29511}
    .fil6 {fill:#FDFDFD}
   ]]>
  </style>
 </defs>
 <g id="Katman_x0020_1">
  <metadata id="CorelCorpID_0Corel-Layer"/>
  <g id="_3047741171200">
   <path class="fil0" d="M40632.47 37559.43l0 0zm0 0l1362.21 714.7c378,-736.85 389.04,-1026.76 -185.06,-1540.64 -224.38,-200.82 -978.07,-787.78 -1247.33,-859.61l0 -3300.93c395.92,209.53 1821.43,1649.38 2167.16,2048.62 272.08,314.22 17.17,1215.64 -30.77,1774.56 -84.86,990.93 54.66,1022.78 1024.02,1022.78 324.67,-484.84 351.13,-613.5 351.13,-1404.6 681.94,456.64 975.17,1295.85 1966.51,632.08 0,-1178.31 -518.28,-1025.84 -913.04,-1615.29 695.13,0 1411.57,-199.58 1545.12,-772.6 -317.87,-1364.2 -2427.71,-125.83 -3073.48,-648.51 -550.46,-445.6 -1680.16,-1533.08 -2053.44,-2090.51 1066.91,0 2409.21,-394.1 3351.2,90.17 846.18,435.15 720.09,1634.28 2126.85,1665.64 694.13,-1446.66 -143.92,-866.42 -351.13,-1755.81 720.75,0 2141.03,-43.96 1545.03,-983.21 -122.52,-459.05 -961.89,-491.65 -1545.03,-491.65 162.17,-607.53 561.82,-389.37 561.82,-1545.03 -891.63,-74.24 -467.01,-586.63 -1388.42,367.3 -237.16,245.53 -843.11,995.74 -929.21,1318.25l-3300.85 0c99.29,-372.12 1274.04,-1583.28 1596.38,-1915.16 727.64,-748.96 1819.35,-262.04 3038.89,-262.04l140.43 -983.21c-134.29,-370.96 -849.57,-421.39 -1334.42,-421.39 97.22,-363.99 1357.32,-1167.69 690.73,-1743.28 -732.37,-632.25 -1406.01,533.62 -1744.2,759.99 0,-2294.16 -1828.72,-2182.43 -1255.37,555.68 187.05,893.13 -349.97,1084.74 -869.15,1603.93 -334.29,334.37 -982.3,1057.78 -1316.76,1281.75l-46.78 -3301.34c463.86,-129.65 1802.51,-1222.61 1802.51,-1966.01 -714.29,-1066.66 -1274.45,133.63 -1825.99,280.95 17.67,-792.34 268.43,-1607.99 -647.76,-1668.21 -801.13,-52.68 -740.16,1024.6 -686.66,1668.21 -306.75,-162.33 -702.26,-509.81 -1028.25,-595.17 -678.29,-177.76 -1847.56,354.95 1028.25,2280.73l0 3371.1 -2381.09 -2176.79 167.89 -2596.76c-1014.98,-658.96 -1368.6,24.89 -1368.6,1191.75 -530.3,-123.59 -1085.98,-1278.26 -1733.16,-826.18 -769.37,537.43 594.83,1682.73 679.69,1809.39 -917.93,0 -1630.39,294.97 -1404.6,1264.17 936.6,627.18 2263.8,-469.25 3110.56,400.98 367.64,377.92 1711.43,1676.18 1875.84,1986.91l-3300.84 0c-731.46,-1092.37 -1714.09,-2670.26 -2458.16,-1264.17l681.28 1163.14c-1116.85,30.77 -1664.49,23.22 -1664.49,1084.24 643.7,431.01 660.95,351.13 1685.55,351.13 -182.9,345.65 -539.75,620.72 -618.39,1007.35 -236.16,1161.06 1198.8,1081.34 2303.95,-1007.35l3371.1 0 -2264.21 2300.88c-978.24,-66.03 -2325.02,-648.26 -2862.7,367.96 147.73,633.75 780.64,842.78 1545.11,842.78 -228.61,341.34 -1467.31,1145.79 -679.28,1734.49 730.63,545.9 1299.5,-531.38 1732.75,-821.54 0,721.34 196.93,1695.84 950.86,1517.25 716.69,-169.64 415.58,-1404.85 380.25,-2081.56 -48.61,-931.03 470.74,-1225.01 964.46,-1634.95 469.33,-389.7 739.42,-1098.26 1356.49,-1242.02l0 3300.85c-514.29,272.16 -2750.06,1758.63 -1474.86,2317.63 371.04,235.41 1211.08,-455.48 1474.86,-632.08 -59.06,709.23 -108.17,1545.61 584.55,1673.61 858.37,158.51 820.05,-835.98 820.05,-1603.35z"/>
   <path class="fil1" d="M70691.53 24707.1l38.66 -151.06 -38.66 151.06zm0 0c0,1975.21 -234.83,4063.65 -213.43,5972.42 9.37,836.14 111.15,2155.22 633.99,2456.41 769.7,443.54 1759.71,-294.06 2458.98,-352.29l-61.63 -492.97c-1192.91,99.95 -1535.33,491.4 -1737.15,-1009.09 -122.93,-914.36 -55.91,-2122.29 29.04,-2936.45 84.11,-807.02 55.66,-2152.56 83.53,-2936.44 33.26,-938.5 211.35,-1861.24 211.35,-2808.53 -1043.76,-86.85 -981.63,-550.96 -1758.88,1261.09 -479.53,1118.01 -2986.79,6664.73 -3016.9,7026.15 -229.69,-168.31 -1920.39,-5305.34 -2185.08,-6031.91 -385.89,-1059.11 -380.08,-2420.32 -1815.12,-2326.34 -240.06,15.68 -1608.08,283.03 -1703.55,349.22 -295.64,205.14 -182.91,517.45 253.58,474.48 348.39,-34.34 649.33,-127 955.34,19.82 593.76,514.54 -132.06,6269.81 -402.65,7603.65 -122.02,601.14 -580.56,1836.85 -580.56,2228.71 1198.21,0 1271.21,-99.87 1419.53,-1178.97 252,-1832.87 336.28,-5624.87 336.28,-7599.92 400.65,576.59 2261.06,6394.81 2765.4,7909.74 147.98,444.78 138.03,928.96 605.7,939.41l3722.23 -8568.19z"/>
   <path class="fil2" d="M20265.33 14453.35l0 -561.91c0,-1295.52 1212.81,-2598.5 2528.41,-2598.5l491.56 0c1447.98,0 2598.59,1316.17 2598.59,2668.76l0 491.65c0,1209.75 -1422.43,2387.81 -2949.72,2387.81 -1253.46,0 -2668.84,-1192.58 -2668.84,-2387.81zm-1685.55 -913.04l0 702.34c0,2305.36 2064.96,4354.32 4354.39,4354.32 2308.18,0 4705.53,-1832.96 4705.53,-4073.45l0 -632.08c0,-2362.18 -2109.59,-4354.31 -4494.83,-4354.31 -1528.7,0 -2258.74,484.18 -3100.52,1183.62 -571.37,474.64 -1464.57,1801.26 -1464.57,2819.56z"/>
   <path class="fil3" d="M127157.61 50341.5c0,1209.67 944.8,3362.15 1896.32,3441.28 0,-1350.26 435.74,-1716.9 491.57,-2387.81 586.37,48.78 404.38,772.52 1966.5,772.52 256.4,0 323.09,-331.72 561.83,-491.65 0,639.88 -107.01,666.68 339.6,924.65 282.03,162.92 500.02,269.34 994.82,269.34l522.59 -1037.13 -805.45 -63.21 -86.44 -582.81c1002.71,-223.38 846.43,75.9 1212.08,208.29l632.08 -632.08c0,-805.36 -390.7,-714.12 -817.06,-1079.18 -538.19,-460.79 219.48,-660.62 -897.11,-1069.4 -566.47,-207.46 -893.54,-306.67 -1363.29,-603.22 -310.82,-196.26 -858.46,-730.79 -1206.68,-759.82l-42.39 494.88 -1705.54 -269.42c238.15,-311.81 1258.44,-797.4 1848.38,-898.11 882.01,-150.55 1683.31,-1.24 2379.02,300.2 1142.56,494.97 2226.06,1851.37 2226.06,3462.68 0,1995.54 -1683.23,3862.67 -3652.06,3862.67 -1471.62,0 -1321.15,-350.13 -2177.12,-421.39 18.42,828.68 1308.05,842.78 2036.68,842.78 2193.71,0 4213.88,-1982.35 4213.88,-4143.62 0,-2338.95 -1936.89,-4424.58 -4213.88,-4424.58 -2333.23,0 -4354.39,1950.67 -4354.39,4284.14z"/>
   <path class="fil1" d="M59805.7 10660.86c0,2669.76 1102.75,5159.76 3570.94,5980.47 218.49,72.67 919.5,200.58 1064.33,270.09 -267.76,399.82 -772.6,843.44 -772.6,1334.34 0,650.99 1080.27,793 1158.4,1421.6 82.71,665.76 -947.7,1434.05 -947.7,1668.63 0,848.83 2106.94,-1171.01 2106.94,-2458.15 0,-326.99 -988.03,-946.46 -1264.17,-1264.16 259.8,-1115.11 524.17,-360.59 2519.79,-1202.45 620.13,-261.63 1763.19,-1150.77 2115.56,-1677.01l-222.06 -343.75c-807.19,183.32 -1626.24,1467.48 -3149.12,1467.48l-912.96 0c-2409.29,0 -3652.05,-3052.74 -3652.05,-5759 0,-2540.35 1377.97,-5407.78 3792.49,-5407.78l632.08 0c1734.24,0 2809.28,1074.2 2809.28,2879.45l491.65 0c101.78,-436.9 64.04,-1122.81 118.7,-1567.1 89.84,-731.12 73.83,-1040.03 -355.69,-1356.32 -814.49,-599.89 -1895.33,-798.81 -3063.94,-798.81 -3517.43,0 -6039.87,3236.81 -6039.87,6812.47z"/>
   <path class="fil4" d="M19984.46 38683.07l562.48 350.3 24309.69 -32666.94 -706.73 -420.31c-921.67,1376.81 -2080.81,2685.27 -3039.97,4068.39 -954.01,1375.65 -2020.26,2703.43 -3035.9,4057.52l-15180.01 20357.02c-499.52,666.09 -2909.56,3577.56 -2909.56,4254.02z"/>
   <path class="fil5" d="M52010.03 5252.99l0 40242.55c0,293.23 243.7,210.7 842.77,210.7l0 -40453.25c0,-449.43 -842.77,-320.52 -842.77,0z"/>
   <path class="fil1" d="M105034.74 32151.56c-1450.47,0 -1082.67,-5126.83 1474.85,-5126.83 515.21,0 992.84,-20.57 1474.86,210.69 -333.62,1431.98 -396.92,1775.64 -982.21,2950.71 -294.64,591.69 -1175.83,1965.43 -1967.5,1965.43zm3019.97 -5407.78c-450.25,-37.5 -691.64,-351.13 -1474.86,-351.13 -1966.75,0 -3581.79,2281.8 -3581.79,4213.88l0 491.56c0,906.65 582.72,2177.2 1404.59,2177.2 997.32,0 1544.37,-512.8 2246.72,-1475.52 389.12,-533.29 948.62,-1893.51 1194.65,-2176.54 0,3227.6 -394.02,4234.79 1865.88,3270.57 588.79,-251.17 778.08,-196.59 732.62,-742.24 -458.55,220.07 -914.11,254.74 -1404.6,140.52 -502.26,-2155.88 59.15,-6182.13 296.55,-8693.04 82.2,-868.9 335.53,-1963.1 335.53,-2824.95 -1244.83,-290 -1398.71,-336.2 -1475.43,2598 -28.62,1094.28 -139.86,2113.41 -139.86,3371.69z"/>
   <path class="fil1" d="M127368.3 33134.85l1052.97 -76.06c138.94,-1658.1 1403.77,-5947.05 3441.86,-5472.24 98.22,367.8 140.52,15.51 140.52,491.65 0,1255.29 -2387.89,1854.94 -2387.89,2036.68 0,91.74 1339.98,3160.41 2458.07,3160.41 681.68,0 1727.52,-531.55 1966.5,-983.21 -671.4,-377.26 -1140.32,1033.81 -2388.47,-842.2 -214.18,-321.84 -761.82,-1019.71 -771.94,-1475.44 601.31,-50.1 2177.2,-1238.78 2177.2,-2528.32 0,-1300.42 -2037.43,-2046.56 -3980.21,1568.09 -217.66,405.05 -350.96,974.75 -584.88,1311.36l815.73 -9553.89c-358.43,-89.67 -220.98,-138.03 -745.47,-138.03 -891.72,0 -553.7,1881.23 -653.98,2717.12 -95.31,794.34 -193.69,2402.83 -190.62,3250.75 7.88,2133.23 -349.39,4442.9 -349.39,6533.33z"/>
   <path class="fil1" d="M82982.04 30185.14l20.99 20.9c-1.41,-1.32 -27.95,-13.93 -20.99,-20.9zm-1053.47 3019.89l1050.98 -157.11c440.8,-1842.16 375.19,-3086.25 1717.08,-4870.51 526.9,-700.52 1653.45,-1115.1 1660.91,321.93 5.31,1024.1 -144.83,2428.37 -144.83,3792.74 0,1846.97 2412.12,617.73 2739.02,0 -344.16,-287.51 -1685.55,677.45 -1685.55,-561.91 0,-1262.17 130.15,-2309.42 234.09,-3579.56 171.12,-2090.59 -2241.74,-2652.75 -3653.14,230.77 -227.03,463.78 -555.18,1388.59 -794.83,1733.5 0,-1379.88 488.66,-6891.02 736.93,-8679.02 101.04,-727.47 59.23,-802.21 -666.67,-802.21 -892.21,0 -668.41,1874.1 -702.09,2739.27 -37,950.7 -52.26,2301.71 -154.7,3286.66 -206.14,1981.52 -337.2,4390.57 -337.2,6545.45z"/>
   <path class="fil1" d="M72587.78 15717.51c-581.73,0 -842.78,-328.9 -842.78,-983.29 0,-1454.2 1599.2,-1825.99 3090.24,-1825.99 -151.14,314.88 -98.38,965.88 -731.63,1796.71 -313.55,411.43 -844.93,1012.57 -1515.83,1012.57zm-1755.73 -4845.96c0,443.37 411.43,842.78 842.78,842.78 333.21,0 507.24,-78.72 772.51,-140.52 -82.61,-354.78 -351.13,-700.02 -351.13,-1193.91 0,-1057.86 1450.31,-1154.09 2203.42,-728.63 853.39,482.19 605.78,1558.39 605.78,2695.14 -5676.46,0 -5315.38,4565.01 -3019.89,4565.01 1799.03,0 2571.55,-2040.58 2949.72,-2317.64 0,3490.89 2952.45,2046.22 3371.1,1474.86l-164.82 -265.77c-423.3,195.1 -610.93,265.77 -1099.34,265.77 -952.36,0 -863.85,-1543.46 -842.78,-2177.2 64.87,-1953.64 878.36,-5197.09 -1896.25,-5197.09 -1395.72,0 -3371.1,943.06 -3371.1,2177.2z"/>
   <path class="fil1" d="M85861.58 15717.51c-714.45,0 -842.77,-362.16 -842.77,-1123.73 0,-1304.97 1715.16,-1685.55 3090.15,-1685.55 -194.94,406.29 -27.79,774.84 -742.57,1785.76 -285.93,404.46 -867.42,1023.52 -1504.81,1023.52zm-913.03 -4003.18c530.05,0 385.8,-50.44 772.52,-140.52 -126.17,-541.5 -351.13,-386.14 -351.13,-1264.17 0,-951.44 1487.63,-1061.68 2176.28,-631.25 919.01,574.43 633,1396.06 633,2668.02 -5695.63,0 -5360.92,4565.01 -2949.72,4565.01 798.23,0 1331.85,-458.55 1754.24,-844.27 383.56,-350.3 899.92,-1308.3 1125.22,-1473.37 0,3817.05 3738.57,1768.51 3230.67,1264.17 -122.27,-121.36 -357.35,210.69 -1123.73,210.69 -1407.5,0 -702.34,-3417.47 -702.34,-5126.91 0,-1363.54 -670.41,-2247.38 -2036.68,-2247.38 -3262.36,0 -4197.87,3019.98 -2528.33,3019.98z"/>
   <path class="fil1" d="M91831.19 10731.03c0,1916.57 975.41,2074.18 2693.32,2925.25 598.73,296.71 1166.86,540.17 1278.01,1327.2 172.21,1219.54 -1907.52,1531.35 -2799.57,685.92 -514.29,-487.33 -283.86,-612.67 -539.68,-1145.88 -656.05,314.8 -1053.47,-38.32 -1053.47,1053.47 0,723.83 1422.27,1271.63 2177.2,1334.43 -160.59,239.81 -772.52,950.19 -772.52,1264.16 0,1100.17 2243.15,682.1 537.69,2715.55 -528.48,630.17 -300.86,976.24 251.34,465.85 3362.56,-3108.15 334.62,-2953.29 334.62,-3813.48 0,-836.89 1139.49,-642.45 1868.62,-1081.09 827.35,-497.79 1151.36,-1172.42 1151.36,-2149.58 0,-1910.1 -4073.45,-2122.29 -4073.45,-3722.23 0,-1071.64 1025.43,-1123.73 1685.55,-1123.73 1865.47,0 593.35,1545.12 1193.99,1545.12 2001.59,0 1418.54,-2317.64 -983.29,-2317.64 -1261.68,0 -2949.72,878.53 -2949.72,2036.68z"/>
   <path class="fil6" d="M20638.69 50690.72c193.11,96.06 301.6,12.45 209.86,363.24 -1.91,0.83 -11.94,164.74 -300.94,-4.72 -156.03,-91.42 -557.6,-749.79 72,-701.43 86.18,161.34 90.25,161.17 19.08,342.91zm1772.65 -318.03c113.56,462.12 -75.65,749.13 -508.32,718.6 -63.88,-384.89 101.03,-225.71 158.02,-463.36 31.02,-129.57 -131.06,-388.79 350.3,-255.24zm-2199.68 -1420.69c-529.23,-273.65 -1270.88,-2242.48 -906.15,-2938.27 498.94,68.35 1573.15,2144.1 1715.74,2897.71l648.76 -14.19c349.3,-569.12 1204.36,-2924.41 1763.36,-2865.19 445.03,626.2 -380.91,2792.2 -894.54,2891.32 162,-402.31 994.16,-1810.47 746.47,-2343.26 -254.9,136.45 -1014.65,1958.12 -954.18,2419.58 46.95,359.09 551.29,365.56 534.12,1199.96 -11.78,574.6 -188.88,962.97 -150.14,1617.53l957.91 -24.22c-195.01,174.61 -562.48,149.23 -813.41,161.92 -687.08,34.59 -366.89,5.64 -776.17,-190.95 22.9,-668.17 960.82,-745.15 458.72,-1931.34 -953.35,-126.5 -967.53,1268.65 -836.64,2092.43 23.73,149.06 -499.11,1045.67 339.43,768.45 467.84,-154.62 489.41,-453.91 1368.19,-196.35l-830.25 68.69c-1000.8,652.9 -1150.61,1335.33 -2387.73,-1.08l-841.12 17.34c826.02,-610.77 1566.77,601.88 1851.95,-46.46 108.92,-450.33 -271.33,-139.44 -176.35,-593.51 75.4,-361.08 224.8,-264.86 139.28,-884.5 -73.75,-534.69 -351.71,-1207.01 -833.32,-1246.08 -822.54,633.58 258.64,1503.56 338.93,1864.31 -350.22,441.13 -997.97,293.56 -1597.37,215.59l958.57 -91.49c40.56,-615.08 -120.11,-975 -147.57,-1530.19 -41.72,-844.02 447.68,-923.73 531.8,-1220.86 106.84,-377.43 -680.69,-2280.56 -927.14,-2472.51 -329.64,431.18 603.22,1988.66 718.85,2375.62zm-929.54 -1135.26c713.04,933.03 -839.05,1479.51 -427.86,3786.77 223.05,1251.72 1110.21,2495.4 2467.52,2527.75 1957.38,46.7 3105.91,-2304.53 2406.23,-4582.43 -236.83,-770.94 -766.63,-1137.5 -232.01,-1767.09 88.59,-863.93 567.54,-1157.82 0,-2005.33 -645.77,150.47 -709.15,583.72 -1036.88,1053.47l-220.49 507.16c-291.48,-65.7 -510.22,-209.12 -851.15,-212.44 -362.16,-3.48 -556.02,137.45 -854.22,198.09l-254.5 -492.81c-182.73,-284.44 -626.6,-1198.55 -996.64,-983.21 -659.71,176.19 -82.29,1608.16 0,1970.07z"/>
   <path class="fil7" d="M61350.74 52378.18l-842.78 0 0 -3090.15c1328.37,0 2317.64,-136.12 2317.64,1615.3 0,910.13 -564.65,1474.85 -1474.86,1474.85zm-2317.64 -4424.57l0 5759 2528.33 0c3555.5,0 4070.63,-5829.26 -421.39,-5829.26 -1048.41,0 -1110.2,-34.01 -2106.94,70.26z"/>
   <path class="fil1" d="M79329.99 9115.74c-626.53,13.94 -1424.01,162.33 -1474.86,772.52l1403.35 -91.33 -244.2 3319.76c-59.89,2528.32 225.54,4695.49 3215.74,3393.83 1291.37,-562.16 1051.72,-621.71 962.72,-1003.7 -483.94,112.73 -1061.44,421.39 -1615.3,421.39 -1939.21,0 -1053.47,-4302.89 -1053.47,-6110.13l2035.94 84.78c232.01,-2.99 492.39,-275.23 492.39,-506.17 0,-160.92 -23.8,-81.7 -70.26,-280.95 -1162.96,130.07 -1212.32,93.65 -2386.65,-11.03l645.77 -4270.7 -927.88 -72.59c-560.58,0 -983.29,3552.77 -983.29,4354.32z"/>
   <path class="fil1" d="M73219.86 27094.91c0,412.92 -34.34,140.51 1334.42,140.51 189.63,2000.19 -169.63,2443.64 -140.43,4284.06 0,772.43 318.78,1755.81 1053.47,1755.81 1061.1,0 1617.03,-455.48 2191.3,-1390.5 634.15,-1032.4 767.79,-1944.19 969.11,-2261.56 -89.01,1081.43 -380,3652.06 1264.16,3652.06 1042.19,0 1982.85,-980.06 1313.85,-923.4 -184.81,15.67 -336.94,221.06 -752.02,221.06 -640.55,0 -894.79,-1675.02 -842.78,-2458.07l208.04 -3652.22c-1900.31,0.99 -632.25,162.33 -1815.12,3449.74 -885,2459.73 -2577.6,3167.13 -2466.37,834.56 72.01,-1508.2 241.39,-1610.89 210.7,-3441.36 0,-853.06 -232.1,-1002.21 -1023.36,-814.91 -334.04,79.14 -1504.97,319.53 -1504.97,604.22z"/>
   <path class="fil1" d="M96747.41 30185.14c83.53,-885.33 272.24,-2414.52 210.7,-3230.67 -79.8,-1059.11 -1789.08,-125.92 -2458.07,-70.26l0 421.39c1622.34,-192.28 1416.96,-561.41 1336.49,2811.35 -24.05,1008.18 -142.59,1926.36 -142.59,3088.08l1050.98 -157.11c2.49,-1720.89 1321.82,-5531.63 2671.34,-5531.63 1603.84,0 -483.6,5759 1193.9,5759 572.28,0 2217.1,-531.21 1966.51,-1053.47 -179.59,-84.61 -1706.54,639.38 -1615.38,-491.65 93.4,-1211.74 248.35,-2437.74 210.7,-3651.97 -68.6,-2214.03 -2095.66,-2252.68 -3342.32,-181.99 -312.31,518.68 -841.54,2011.96 -1082.26,2288.93z"/>
   <path class="fil1" d="M120977.3 33275.29c737.93,0 1279.93,-337.94 1836.44,-627.11 355.03,-184.48 232.35,-110.4 200.24,-496.62l-1326.7 258.64c-448.18,-1940.62 -104.36,-6471.04 162.83,-8796.81 99.95,-870.48 321.1,-2018.93 321.1,-2839.3 -1390.08,-323.84 -1401.03,-175.36 -1475.44,2668.26 -45.04,1722.3 -879.52,9832.94 281.53,9832.94z"/>
   <path class="fil1" d="M90356.33 29342.36c280.62,-1204.52 559.84,-2317.63 1826.07,-2317.63 867.58,0 1986.75,2000.35 -1826.07,2317.63zm-1123.64 702.26l0 632.08c0,1246.42 1062.67,2598.59 2317.63,2598.59 1286.98,0 2487.1,-765.47 2668.76,-1545.12 -502.68,-134.21 -353.78,-93.65 -832.74,290.83 -1235.87,992.33 -3030.01,182.99 -3030.01,-2187.07 1290.55,-28.7 3933.01,-628.1 3933.01,-2036.68 0,-762.15 -742.82,-1404.6 -1474.86,-1404.6 -2040.66,0 -3581.79,1716.66 -3581.79,3651.97z"/>
   <path class="fil1" d="M114586.22 28218.63c0,1398.46 1039.71,1719.65 2341.78,2363.76 1793.47,887.15 1159.39,2060.82 -305.09,2060.82 -754.36,0 -1387.76,-578.08 -1404.6,-1334.43 -1618.7,36.09 -1340.15,1966.51 1474.85,1966.51 924.74,0 2247.38,-789.36 2247.38,-1615.29l0 -280.96c0,-2130.66 -3441.28,-2037.34 -3441.28,-3371.1 0,-965.04 989.85,-983.21 1615.29,-983.21 818.39,0 702.34,611.43 702.34,1264.16 1637.11,391.94 1489.21,-1896.24 -421.38,-1896.24l-421.39 0c-1055.55,0 -2387.9,767.54 -2387.9,1825.98z"/>
   <path class="fil8" d="M27077.79 53572.09l1334.43 0 1810.72 -5882.68 -1178.64 -16.75 -1254.87 4656.33 -1268.23 -4657.66c-1253.88,1.33 -1324.8,-233.42 -998.64,783.3 186.64,581.57 351.13,1133.43 525.82,1722.3 327.32,1103.41 782.72,2336.38 1029.41,3395.16z"/>
   <path class="fil7" d="M62897.1 47962.07c277.88,234.17 538.18,276.97 792.59,532.04 257.64,258.4 336.61,608.78 661.86,742.91 1081.09,445.77 1423.76,168.39 1423.76,1806.74 0,1010.75 -676.13,1117.26 -1407.09,1331.94 -360.17,105.76 -429.51,484.59 -682.84,721.75 -249.43,233.42 -632.09,379.99 -789.52,615.16 1417.53,0 2260.06,99.37 3176.33,-475.72 1906.45,-1196.73 2222.82,-5947.88 -3175.09,-5274.82z"/>
   <path class="fil8" d="M30940.54 52307.93c0,-694.05 857.96,-561.83 1404.6,-561.83l0 842.78c-34.59,9.29 -1404.6,961.06 -1404.6,-280.95zm-702.34 -2528.33c0,733.03 105.68,351.21 1545.12,351.21 484.85,0 561.82,351.71 561.82,842.78 -1200.45,0 -2528.32,92.48 -2528.32,1404.59 0,1175.08 738.17,1334.43 1474.85,1334.43 549.38,0 807.94,-280.13 1123.73,-491.65 11.95,534.37 396.42,351.13 983.21,351.13 146.99,-630.67 70.26,-1506.3 70.26,-2177.12 0,-1758.63 -257.89,-2177.2 -1755.81,-2177.2 -578.58,0 -1474.86,-35.66 -1474.86,561.83z"/>
   <path class="fil8" d="M41124.12 52378.18c0,-744.56 817.97,-632.08 1404.59,-632.08l0 702.34c0,388.46 -1404.59,882.93 -1404.59,-70.26zm-772.52 -2598.58l70.17 491.64c616.33,-92.73 2106.94,-483.18 2106.94,421.39l0 280.96c-2124.36,0 -2458.06,399.65 -2458.06,1615.29 0,1392.9 1957.62,1344.79 2387.89,702.34 513.13,207.13 -426.53,280.87 983.21,280.87 161.84,0 210.69,-48.86 210.69,-210.7l0 -2598.5c0,-1264.49 -624.7,-1545.12 -1685.55,-1545.12 -605.45,0 -1615.29,-60.88 -1615.29,561.83z"/>
   <path class="fil8" d="M45478.43 49709.42c-9.21,-414.75 26.3,-351.21 -772.52,-351.21 -161.83,0 -210.69,48.94 -210.69,210.69l0 3792.49c0,299.7 269.5,210.7 913.03,210.7 358.27,0 210.7,-1044.43 210.7,-1404.6 -0.09,-561.82 0,-1123.73 0,-1685.55 2740.26,-1449.97 779.57,3090.15 1685.55,3090.15 643.45,0 912.95,89 912.95,-210.7l0 -2809.19c0,-883.42 -451,-1334.43 -1334.34,-1334.43 -834.06,0 -989.43,380.75 -1404.68,491.65z"/>
   <path class="fil9" d="M21386.57 52780.91l301.61 247.52c-265.94,83.95 -363.99,150.89 -624.46,-42.55l322.85 -204.97zm-1174.91 -3828.91c-115.63,-386.96 -1048.49,-1944.44 -718.85,-2375.62 246.45,191.95 1033.98,2095.08 927.14,2472.51 -84.12,297.13 -573.52,376.84 -531.8,1220.86 27.46,555.19 188.13,915.11 147.57,1530.19l-958.57 91.49c599.4,77.97 1247.15,225.54 1597.37,-215.59 -80.29,-360.75 -1161.47,-1230.73 -338.93,-1864.31 481.61,39.07 759.57,711.39 833.32,1246.08 85.52,619.64 -63.88,523.42 -139.28,884.5 -94.98,454.07 285.27,143.18 176.35,593.51 -285.18,648.34 -1025.93,-564.31 -1851.95,46.46l841.12 -17.34c1237.12,1336.41 1386.93,653.98 2387.73,1.08l830.25 -68.69c-878.78,-257.56 -900.35,41.73 -1368.19,196.35 -838.54,277.22 -315.7,-619.39 -339.43,-768.45 -130.89,-823.78 -116.71,-2218.93 836.64,-2092.43 502.1,1186.19 -435.82,1263.17 -458.72,1931.34 409.28,196.59 89.09,225.54 776.17,190.95 250.93,-12.69 618.4,12.69 813.41,-161.92l-957.91 24.22c-38.74,-654.56 138.36,-1042.93 150.14,-1617.53 17.17,-834.4 -487.17,-840.87 -534.12,-1199.96 -60.47,-461.46 699.28,-2283.13 954.18,-2419.58 247.69,532.79 -584.47,1940.95 -746.47,2343.26 513.63,-99.12 1339.57,-2265.12 894.54,-2891.32 -559,-59.22 -1414.06,2296.07 -1763.36,2865.19l-648.76 14.19c-142.59,-753.61 -1216.8,-2829.36 -1715.74,-2897.71 -364.73,695.79 376.92,2664.62 906.15,2938.27z"/>
   <path class="fil10" d="M23496 47781.74c-534.62,629.59 -4.82,996.15 232.01,1767.09 699.68,2277.9 -448.85,4629.13 -2406.23,4582.43 -1357.31,-32.35 -2244.47,-1276.03 -2467.52,-2527.75 -411.19,-2307.26 1140.9,-2853.74 427.86,-3786.77 -781.81,546.15 -1278.93,2923.59 -899.52,4337.23 318.61,1187.1 1296.43,2442.64 2794.52,2541.85l373.27 0c2451.94,-157.86 4185.18,-3500.92 1945.61,-6914.08z"/>
   <path class="fil11" d="M121398.69 49217.77c-354.11,-237.07 -26.96,-210.69 -842.77,-210.69l0 3160.41 702.25 0c0,-970.77 -201.15,-2528.33 632.09,-2528.33 951.52,0 702.34,1268.06 702.34,2528.33l772.51 0c0,-1194.98 -233.42,-2528.33 632.09,-2528.33 943.22,0 702.34,1421.03 702.34,2528.33l772.51 0c0,-1386.85 321.52,-3230.67 -1334.34,-3230.67 -627.27,0 -841.28,291.74 -1069.14,317.12 -318.45,35.42 -1080.43,-840.7 -1669.88,-36.17z"/>
   <path class="fil1" d="M123997.2 29623.23l0 2387.9c0,568.29 218.82,1264.16 772.6,1264.16 560.57,0 2138.46,-548.72 1896.24,-1053.47 -437.15,-205.97 -1615.37,1007.43 -1615.37,-983.21 0,-1548.19 151.55,-3093.14 255.57,-4637.34 -1544.62,-1016.14 -1309.04,1878.91 -1309.04,3021.96z"/>
   <path class="fil8" d="M49060.23 48515.43l0 3792.5c0,1544.78 1092.7,1404.68 1966.5,1404.68 677.96,0 561.83,-200.25 561.83,-913.04 -1687.3,0 -1404.6,301.19 -1404.6,-2528.33 1543.62,0 1334.42,169.72 1334.42,-702.34 0,-335.37 -470.25,-210.69 -1334.42,-210.69 0,-1251.64 189.04,-1053.47 -913.04,-1053.47 -161.75,0 -210.69,48.94 -210.69,210.69z"/>
   <path class="fil1" d="M111425.82 30395.83c0,1998.78 -264.37,3891.62 2473.99,2257.75 346.07,-206.47 227.7,-106.43 194.77,-502.02 -475.81,228.28 -689.15,210.69 -1193.91,210.69 -712.29,0 -335.7,-3958.06 -304.34,-4237.27 124.51,-1107.14 433.75,-1662.16 -538.43,-1662.16 -733.37,0 -551.37,955.09 -559.09,1688.38 -7.3,688.65 -72.99,1442.09 -72.99,2244.63z"/>
   <path class="fil3" d="M100188.77 51535.41c-873.79,0 -842.77,-460.38 -842.77,-1123.73 0,-1217.55 1685.55,-674.64 1685.55,-140.44 0,566.31 -60.3,1264.17 -842.78,1264.17zm-1053.47 -2528.33l-561.82 0 0 4565.01 772.52 0 0 -1615.29c1317.33,697.03 2458.07,44.21 2458.07,-1545.12 0,-626.53 -711.72,-1902.39 -2166.92,-1309.62 -640.29,260.79 -7.05,-94.98 -501.85,-94.98z"/>
   <path class="fil11" d="M111144.86 47742.92l0 4424.57 772.52 0c0,-2474.41 -196.76,-2458.07 913.03,-2458.07 515.54,0 421.39,1515.26 421.39,1896.25 0,672.72 -299.78,561.82 702.34,561.82 125.59,-921.74 76.82,-809.6 70.26,-1755.81 -4.73,-675.88 -432.5,-1474.86 -1334.42,-1474.86 -387.79,0 -469.75,140.19 -772.6,210.7l0 -1755.73c-265.94,61.96 -772.52,68.6 -772.52,351.13z"/>
   <path class="fil11" d="M115990.82 49639.16l351.22 0c253.74,0 502.09,305.67 561.82,561.83l-1545.12 0c72.33,-310.32 254.33,-561.83 632.08,-561.83zm-1474.85 842.78c0,2384.16 2983.72,1881.4 2919.85,1134.68 -56.41,-659.13 -574.02,-81.21 -1374.74,-81.21 -385.72,0 -670.32,-247.53 -702.34,-632.08 986.95,0 2387.89,272.65 2387.89,-421.39 0,-2009.56 -3230.66,-2050.78 -3230.66,0z"/>
   <path class="fil2" d="M78276.52 41703.05c0,-443.12 254.99,-825.19 632.08,-913.04l788.28 1182.21c-253.42,66.7 -1420.36,443.37 -1420.36,-269.17zm842.77 -1685.55c0,-2089.69 1010.5,-676.63 0,0zm-1404.6 1755.81c0,495.21 686.92,912.95 1193.91,912.95 535.03,0 763.06,-294.14 1067.65,-415.58 421.23,-167.81 585.72,275.15 1109.55,275.15 466.18,0 735.6,-117.63 772.51,-561.83l-1195.31 -34.75c8.38,-346.65 279.96,-889.07 450.17,-1061.6 252.83,-256.24 1011.91,-163.33 885.66,-448.76 -137.94,-341.76 -847.83,-27.05 -1193.99,-70.26l-770.52 -86.19c-2.66,400.32 -73,563.73 559.83,577.83l-302.93 763.4c-520.44,-36 -816.57,-708.57 -1031.41,-1114.53 412.76,-616.48 772.52,-426.28 772.52,-1404.68 0,-476.55 -336.78,-561.82 -702.34,-561.82 -921.08,0 -424.54,992.17 -653.9,1733.91 -111.16,359.34 -961.4,553.28 -961.4,1496.76z"/>
   <path class="fil8" d="M36278.15 47883.35l0 5478.04c0,299.7 269.51,210.7 913.04,210.7 161.75,0 210.69,-48.86 210.69,-210.7l0 -5478.04c0,-299.62 -269.59,-210.69 -913.03,-210.69 -161.84,0 -210.7,48.94 -210.7,210.69z"/>
   <polygon class="fil8" points="38314.83,53572.09 39368.3,53572.09 39368.3,47672.66 38314.83,47672.66 "/>
   <path class="fil2" d="M13874.33 13821.27c0,984.2 686.58,1186.1 1769.17,1067.9 1086.98,-118.62 2093.5,205.22 2093.5,-857.21 0,-1208.09 -1434.46,-913.03 -2949.72,-913.03 -462.03,0 -912.95,246.19 -912.95,702.34z"/>
   <path class="fil3" d="M106298.9 51465.15c-536.11,0 -1053.47,-10.78 -1053.47,-983.21 0,-1113.86 1825.99,-1011.5 1825.99,70.26 0,473.98 -294.64,912.95 -772.52,912.95zm-1825.99 -1053.47c0,2584.65 3371.11,2245.96 3371.11,140.52 0,-2114.57 -3371.11,-2081.89 -3371.11,-140.52z"/>
   <path class="fil2" d="M28412.22 13680.75c0,1438.52 812.25,1193.99 2739.02,1193.99 736.27,0 1123.73,-322.02 1123.73,-983.3 0,-1274.7 -3862.75,-940.99 -3862.75,-210.69z"/>
   <path class="fil2" d="M16332.4 19861.13c0,2573.29 3230.67,-702.34 3230.67,-1334.42l0 -280.95c0,-978.73 -1308.88,-699.61 -1805.08,-119.45 -290.91,340.1 -1425.59,1336.74 -1425.59,1734.82z"/>
   <path class="fil2" d="M26586.23 18316.02c0,813.82 1981.1,2528.32 2598.5,2528.32 387.13,0 707.57,-596.41 662.94,-949.36 -53.67,-424.96 -433.41,-755.02 -680.27,-999.72 -565.81,-560.75 -1009.34,-1351.76 -2089.61,-1351.76 -155.94,0 -491.56,503.01 -491.56,772.52z"/>
   <path class="fil2" d="M16332.4 8062.27c0,791.84 1878.08,2528.33 2458.07,2528.33 482.36,0 772.6,-345.74 772.6,-842.78 0,-661.78 -1901.31,-2458.07 -2387.89,-2458.07 -423.55,0 -842.78,354.78 -842.78,772.52z"/>
   <path class="fil2" d="M69357.19 42475.57c856.38,-71.26 986.45,-1451.3 1755.73,-1966.43l266.77 1769.25c1049.9,-167.81 921.41,-1588 1699.74,-1769.25 0,2298.56 1053.47,2159.7 1053.47,1615.3 0,-272.08 -177.85,-113.15 -339.19,-433.34 -291.07,-577.33 76.56,-1814.04 -784.54,-1814.04 -456.81,0 -907.07,1283.41 -1264.17,1545.04 -170.38,-731.54 141.52,-1545.04 -632.08,-1545.04 -446.36,0 -960.73,1294.86 -1334.34,1545.04 52.01,-625.12 588.2,-1755.73 -280.95,-1755.73 -57.65,692.72 -505.25,2049.04 -140.44,2809.2z"/>
   <path class="fil2" d="M120501.09 41835.27c31.18,166.23 149.06,544.07 195.26,640.3 1002.62,-233.59 1077.03,-1785.18 1755.81,-1966.43 10.87,489.49 -0.5,1572.91 421.39,1685.47 560.83,326.5 790.18,-1509.61 1545.03,-1685.47 0,694.05 128.58,1966.43 702.34,1966.43 725.9,0 -35.66,-736.93 -103.93,-1160.23 -104.93,-650.66 -21.65,-1438.28 -598.41,-1438.28 -789.6,0 -848.91,1396.72 -1404.6,1545.04 0,-954.85 45.63,-1022.78 -351.12,-1615.3 -1195.57,573.61 -917.02,1155.17 -1545.12,1615.3 12.19,-546.31 561.41,-1710.69 -280.54,-1836.44l-336.11 2249.61z"/>
   <path class="fil2" d="M97480.86 41626.57c39.07,395.84 15.68,507.32 179.59,849 781.72,-182.08 878.77,-968.45 1323.39,-1557.65 826.18,-1094.86 236.49,529.97 783.55,1346.95 944.55,-78.55 760.24,-1556.56 1615.29,-1755.73 0,694.05 128.57,1966.43 702.34,1966.43 725.9,0 -35.67,-736.93 -103.94,-1160.23 -104.93,-650.66 -21.65,-1438.28 -598.4,-1438.28 -796.99,0 -855.97,1398.55 -1404.6,1545.04 0,-954.85 45.62,-1022.78 -351.13,-1615.3 -1226.17,588.29 -882.18,1171.35 -1545.12,1615.3 18.42,-828.01 563.74,-1416.22 -210.69,-1825.99l-390.28 2030.46z"/>
   <path class="fil2" d="M26586.23 9818.08c0,363.9 434.58,772.52 772.52,772.52 446.35,0 2458.07,-1601.86 2458.07,-2528.33 0,-386.88 -249.6,-702.34 -702.26,-702.34 -775.09,0 -2528.33,1779.62 -2528.33,2458.15z"/>
   <path class="fil2" d="M107984.45 41211.4c0,659.96 -91.82,988.52 561.83,1334.43 -164.41,1119.58 -52.1,599.56 335.45,742.57 298.87,110.32 191.28,330.47 -124.76,310.9l-630.76 -78.64c-27.37,322.26 -112.48,570.2 420.07,570.2 553.36,0 983.29,-217.83 983.29,-772.52 0,-532.95 -272.58,-262.87 -491.65,-561.82 771.11,-64.2 1765.27,-393.43 1825.99,-1123.73 -511.72,119.28 -2743,1508.54 -2332.15,-499.36 149.39,-729.72 1162.96,-2239.66 2051.28,-2239.66 318.2,0 140.43,475.64 140.43,913.03 923.24,215.09 796.74,-1334.42 0,-1334.42 -1468.13,0 -2739.02,1832.37 -2739.02,2739.02z"/>
   <path class="fil2" d="M89162.43 41843.48c62.38,-749.29 742.24,-1685.55 1545.11,-1685.55 188.97,811.09 -651.57,1685.55 -1545.11,1685.55zm-491.65 -140.43c0,1627.07 1885.96,-63.37 1896.25,-70.26 -334.54,1435.95 -90.09,1896.25 -1123.65,1896.25 -306,0 -927.63,-413.18 -1264.16,-491.65 0,1003.87 2258.16,1945.77 2736.45,-423.88 86.93,-430.68 101.94,-827.1 164.32,-1310.53 111.07,-860.86 707.65,-1636.61 -372.45,-1636.61 -844.76,0 -2036.76,1191.91 -2036.76,2036.68z"/>
   <path class="fil12" d="M90215.9 50411.68c0,1815.95 -161.92,1896.25 491.64,1896.25 242.14,0 215.01,-128.58 210.7,-421.39l-39.32 -1333.51c742.32,-0.83 811.84,85.19 811.84,771.68 0,259.8 -194.77,983.22 70.25,983.22 740.34,0 561.83,-188.88 561.83,-1755.73l632.08 70.17c0,832.74 -287.84,1685.56 491.65,1685.56 335.37,0 210.69,-470.17 210.69,-1334.34 0,-1561.96 -1315.76,-913.04 -1615.38,-913.04 -249.84,0 -392.77,-140.43 -561.82,-140.43 -404.63,0 -1264.16,118.78 -1264.16,491.56z"/>
   <path class="fil2" d="M22372.35 5463.68l0 2809.28c0,467.35 1545.03,1286.32 1545.03,-913.03 0,-601.81 85.69,-2458.07 -632.08,-2458.07 -462.94,0 -912.95,187.38 -912.95,561.82z"/>
   <path class="fil12" d="M80945.36 51675.84l-70.26 -1685.55c868.58,0 1264.17,-111.82 1264.17,983.3 0,547.8 -631.26,702.25 -1193.91,702.25zm-772.6 -2177.11l0 2598.5c0,273.07 180.17,210.7 632.08,210.7 1252.8,0 2107.03,-376.43 2107.03,-1615.3 0,-1455.61 -1604.6,-1404.6 -2528.41,-1404.6 -161.76,0 -210.7,48.86 -210.7,210.7z"/>
   <path class="fil2" d="M22231.83 21687.12c0,2248.04 1545.12,1600.45 1545.12,913.04l0 -2598.59c0,-287.34 -205.97,-632.08 -632.08,-632.08 -1032.82,0 -913.04,1267.23 -913.04,2317.63z"/>
   <path class="fil12" d="M73711.51 50552.2c0,2024.98 -195.77,1755.73 702.34,1755.73 0,-2033.45 -145.58,-1755.73 632.08,-1755.73 218.74,939.08 140.44,600.31 140.44,1755.73 979.72,0 561.82,-153.13 561.82,-1334.34 0,-264.53 46.28,-132.81 70.26,-421.39 1457.93,0 127.33,1755.73 842.77,1755.73l491.65 0c0,-1160.9 253.17,-2387.81 -842.78,-2387.81 -366.55,0 -406.37,140.43 -702.34,140.43 -434.66,0 -1896.24,-374.11 -1896.24,491.65z"/>
   <path class="fil12" d="M69286.93 51675.84l0 -1685.55 632.09 0c339.68,0 561.82,222.14 561.82,561.91l0 561.82c0,411.93 -745.31,561.82 -1193.91,561.82zm-702.34 632.09c1549.02,0 2668.85,-9.79 2668.85,-1685.56 0,-1438.77 -1692.19,-1334.34 -2668.85,-1334.34l0 3019.9z"/>
   <path class="fil11" d="M108756.97 48375l0 632.08 -632.08 0 0 702.34 632.08 0c0,1558.8 -183.4,2528.33 1264.16,2528.33 667.75,0 561.91,-213.68 561.91,-772.6 -1209.17,0 -1053.47,244.12 -1053.47,-1755.73 1220.2,0 1053.47,147.9 1053.47,-702.34l-1053.47 0 0 -983.21c-221.89,18.41 -772.6,115.47 -772.6,351.13z"/>
   <path class="fil8" d="M34311.65 49568.9l0 4003.19 1053.47 0c132.3,-567.71 132.3,-3646.17 0,-4213.88 -328.15,0 -1053.47,-132.31 -1053.47,210.69z"/>
   <path class="fil2" d="M82490.48 39806.8c0,779.49 733.45,937.09 1537.48,1201.46 254.08,83.53 447.52,222.06 639.64,273.4 -22.65,1015.65 -1589.17,846.01 -2246.14,764.14 -47.61,202.15 -276.3,640.46 630.84,640.46 1210.83,0 3571.76,-1366.69 1115.1,-2168.57 -544.56,-177.76 -892.87,-203.89 -1185.36,-640.63 158.11,-678.53 948.38,-772.6 1545.12,-772.6 425.37,0 360.5,218.41 491.65,491.65 820.87,-434.33 53.83,-983.21 -351.21,-983.21 -926.23,0 -2177.12,289.66 -2177.12,1193.9z"/>
   <path class="fil2" d="M74975.67 41913.74c0,-839.54 568.46,-1825.98 1334.42,-1825.98 0,592.93 49.11,809.84 -472.4,1353.58 -276.97,288.83 -346.81,472.4 -862.02,472.4zm-561.82 -70.26c0,256.49 291.82,632.09 421.39,632.09 861.85,0 1077.69,-647.02 1474.85,-912.96 0,1340.32 772.52,1019.55 772.52,702.26 0,-248.77 -337.61,-239.14 -280.95,-1053.47l156.77 -1121.07c-3.31,-82.37 -650.16,-519.85 -777.32,-520.76 -664.68,-4.82 -1767.26,1358.81 -1767.26,2273.91z"/>
   <path class="fil12" d="M85580.63 52097.23c0,216.25 97.3,210.7 280.95,210.7 508.99,0 421.39,-288.34 421.39,-772.52 289.83,194.1 439.14,484.51 632.08,772.52l772.52 0c-112.73,-483.77 -604.63,-838.22 -842.78,-1193.91 117.71,-440.88 648.18,-657.88 772.52,-1123.73l-772.52 0 -531.62 725.24c-106.43,-1348.69 301.93,-1427.5 -732.54,-1427.5l0 2809.2z"/>
   <path class="fil2" d="M103419.44 41913.74c-672.72,0 451.92,-1825.98 983.21,-1825.98l210.7 0 0 421.38c0,465.85 -733.28,1404.6 -1193.91,1404.6zm-702.34 -210.69c0,358.26 107.92,772.52 491.65,772.52 745.14,0 922.82,-714.12 1404.6,-842.78 0,966.54 113.72,926.06 772.52,772.52 -58.48,-702.84 -477.14,-249.52 -260.72,-1595.14 34.09,-211.61 190.95,-588.12 57.49,-794.33 -30.03,-46.37 -532.38,-415.42 -619.48,-444.53 -670.32,-223.89 -1846.06,1421.52 -1846.06,2131.74z"/>
   <path class="fil2" d="M66477.65 39877.06c0,546.98 107.51,491.57 632.08,491.57 -128.24,726.39 -622.87,2247.37 421.39,2247.37 518.69,0 1080.68,-466.1 1123.73,-983.21 -655.22,54.5 -366.14,421.39 -1193.9,421.39 -174.45,-728.31 112.89,-1612.97 351.13,-1755.73 475.88,-228.36 1134.92,217.75 1193.9,-491.65 -630.84,-146.98 -439.72,-70.26 -1193.9,-70.26 74.82,-155.86 460.2,-1053.47 0,-1053.47 -324.17,0 -357.19,519.52 -443.62,820.63 -81.63,284.69 -26.96,251.67 -323.51,308.58 -134.79,25.8 -432.09,61.71 -567.3,64.78z"/>
   <path class="fil2" d="M117254.99 41632.79c0,426.86 116.29,913.04 561.9,913.04 534.7,0 927.8,-758.01 1264.17,-983.22 0,684.51 101.61,983.22 561.82,983.22 268.51,0 25.55,21.56 210.69,-70.26 -68.76,-826.27 -499.69,510.31 -110.15,-2524.02l-240.97 -4.31c-453.91,0 -485.1,1938.22 -1755.82,1966.5 0,-1618.52 474.48,-1346.53 280.96,-2177.2 -583.14,0 -502.27,204.39 -592.6,741.83 -71.59,425.78 -180,696.2 -180,1154.42z"/>
   <path class="fil2" d="M86634.1 42054.18c-718.77,0 -327.57,-1896.25 702.34,-1896.25 683.76,0 474.48,1896.25 -702.34,1896.25zm-913.03 -351.13c0,430.59 355.27,912.95 772.6,912.95 909.21,0 1755.72,-991.59 1755.72,-1896.16 0,-828.76 -842.86,-1395.64 -1559.3,-927.55 -496.21,324.25 -969.02,1121.65 -969.02,1910.76z"/>
   <path class="fil2" d="M95553.51 39806.8l-770.61 86.19c-4.73,468.59 21.81,475.64 630.09,475.64 -74.41,392.77 -609.11,2247.37 280.95,2247.37 597.08,0 1193.91,-357.85 1193.91,-983.21 -626.2,13.94 -283.03,421.39 -983.21,421.39 -471.41,0 -58.9,-1385.44 -2.41,-1547.52 105.76,-303.44 167.15,-196.02 593.59,-249.19 277.97,-34.59 507.16,-94.23 743.24,-99.54l0 -421.39 -1123.73 0c137.03,-285.51 462.03,-1053.47 -70.26,-1053.47 -296.38,0 -423.96,833.32 -491.56,1123.73z"/>
   <path class="fil2" d="M91761.01 41562.61c0,395.68 35.18,983.22 561.83,983.22 525.9,0 910.79,-746.64 1264.16,-983.22 0,1122.16 218.58,1023.45 702.34,983.22 -11.36,-508.66 -320.68,-702.84 -265.52,-1243.51 44.54,-437.4 195.26,-822.95 195.26,-1355.08 -1002.04,0 -573.93,1966.5 -1966.5,1966.5 0,-1571.41 810.01,-2177.2 -140.44,-2177.2 -116.79,501.27 -351.13,1259.19 -351.13,1826.07z"/>
   <path class="fil2" d="M112619.72 42054.18c-324.09,0 -491.65,32.27 -491.65,-491.57 0,-633.65 370.71,-1404.68 1053.56,-1404.68 723.82,0 385.3,1896.25 -561.91,1896.25zm-983.21 -772.52c0,474.23 2.24,1334.34 772.52,1334.34 728.3,0 1685.55,-831.83 1685.55,-1966.42 0,-1753.82 -2458.07,-918.1 -2458.07,632.08z"/>
   <path class="fil2" d="M127930.21 41000.71c38.07,-458.05 428.19,-972.43 913.03,-983.21 -11.7,522.42 -556.02,794.33 -913.03,983.21zm-632.09 421.39c0,493.47 79.3,1123.73 842.78,1123.73 663.6,0 1459.51,-506.75 1474.86,-1193.91 -682.1,158.85 -307.09,632.08 -1545.12,632.08 -249.85,0 -367.55,-309.57 -161.26,-503.17 529.97,-497.29 1667.39,-544.82 1355.25,-1884.72 -1387.76,-323.34 -1966.51,1230.57 -1966.51,1825.99z"/>
   <path class="fil12" d="M83684.38 51184.28c0,-862.27 983.22,-1024.19 983.22,0 0,776.66 -983.22,702.75 -983.22,0zm1615.3 0c0,-1825.32 -1860.17,-1322.81 -2129.92,-724.99 -169.88,376.35 -98.13,1185.78 103.61,1487.14 509.39,761.07 2026.31,467.59 2026.31,-762.15z"/>
   <path class="fil2" d="M114586.22 40017.5c0,444.53 1054.39,232.59 1473.45,196.59 -194.76,384.81 -668.66,886.41 -965.29,1224.51 -490.65,559.26 -989.35,777.41 -999.8,1247.66 694.87,0 414.83,-1.33 886.49,-237.24 1214.64,-607.78 1993.05,374.11 1993.05,-254.41 0,-856.29 -1055.88,-280.87 -1685.55,-280.87 129.73,-486.09 1486.55,-1403.6 1545.03,-2106.94 -704.41,-164.16 -916.02,86.52 -1545.03,0l-700.6 -83.2 -1.75 293.9z"/>
   <path class="fil12" d="M72447.34 50481.94c319.11,0 396.51,122.27 421.39,421.39l-702.34 0c5.72,-254.83 30.86,-421.39 280.95,-421.39zm-983.21 351.13c0,823.45 -78.72,1474.86 1264.17,1474.86 309.82,0 500.27,-103.78 702.25,-210.7l-150.22 -488.33c-906.31,206.63 -857.04,397.58 -1184.12,-284.19l1474.86 0c0,-2078.73 -2106.94,-1498 -2106.94,-491.64z"/>
   <path class="fil12" d="M87898.26 51605.67c0,1024.02 2036.68,989.18 2036.68,-70.26l0 -1545.12 -632.08 0 -70.17 1685.55c-818.89,190.79 -702.34,53.01 -702.34,-1685.55l-632.09 0 0 1615.38z"/>
   <path class="fil11" d="M119010.8 49358.21l-72.75 -350.47 -699.77 -0.66 0 3160.41 772.52 0c0,-1689.37 -281.29,-2458.07 1053.47,-2458.07l0 -772.6c-522.42,11.7 -738.01,210.2 -1053.47,421.39z"/>
   <path class="fil3" d="M103208.75 49358.21c-172.45,-372.7 310.15,-351.13 -772.6,-351.13l0 3160.41 772.6 0c-200.49,-2755.94 -12.94,-2016.69 1053.47,-2528.33l0 -702.34c-522.51,11.7 -738.09,210.2 -1053.47,421.39z"/>
   <path class="fil2" d="M130177.58 42124.44c0,285.84 110.9,377.75 280.95,491.56 423.05,-112.89 434.17,-889.72 631.59,-1334.84 662.85,-1494.43 1214.97,-939.99 1545.61,-912.53 155.53,-667.84 -128.99,-702.26 -491.64,-702.26 -770.95,0 -1092.88,1035.3 -1474.86,1474.86 0,-877.29 424.29,-876.04 70.26,-1545.12 -523.17,276.8 -485.51,286.59 -490.32,1054.8 -2.99,466.68 -71.59,900.34 -71.59,1473.53z"/>
   <path class="fil2" d="M62966.11 40509.14c0,981.97 1129.87,634.74 1193.91,1404.6 -343.83,80.13 -203.48,141.93 -699.52,143.18 -399.24,1.07 -457.14,-6.64 -775.34,67.52 0,445.03 82.95,491.56 491.65,491.56 592.76,0 1545.03,-305.26 1545.03,-983.21 0,-554.03 -1264.16,-660.28 -1264.16,-1123.65 0,-237.98 579.49,-561.9 842.77,-561.9 320.44,0 421.39,235.99 421.39,-280.87 0,-587.79 -1755.73,73.91 -1755.73,842.77z"/>
   <path class="fil2" d="M125963.7 41984c0,891.47 535.11,831.91 568.63,289.17 28.7,-464.19 -39.32,-1005.94 -2.33,-1478.68 97.14,-1241.35 873.8,-2743.5 276.48,-2743.5 -566.14,0 -842.78,3101.19 -842.78,3933.01z"/>
   <path class="fil2" d="M61631.69 42545.83c803.71,-187.22 121.52,-375.85 509.23,-2370.23 243.71,-1253.46 403.97,-968.94 52.59,-1632.96 -579.16,387.88 -411.84,528.31 -600.72,1857.34 -66.69,469.42 -74.16,651.66 -103.44,1162.14 -32.35,564.47 -165.4,524.16 142.34,983.71z"/>
   <path class="fil12" d="M78487.21 50130.81l0 2177.12c894.12,0 702.34,259.55 702.34,-1685.56l702.34 0 85.77 -629.67c-1267.15,-4.65 -892.21,88.34 -1490.45,138.11z"/>
   <path class="fil1" d="M124207.89 23653.63l0 280.87c0,952.02 1474.86,823.44 1474.86,-140.44l0 -140.43c0,-1045.51 -1474.86,-849.67 -1474.86,0z"/>
   <path class="fil1" d="M111636.51 23653.63c0,1452.54 1474.86,1137 1474.86,0 0,-1028.67 -1474.86,-848.26 -1474.86,0z"/>
   <path class="fil1" d="M75256.62 23513.11c0,430.01 43.47,1123.73 632.09,1123.73 852.81,0 1133.51,-1685.56 140.43,-1685.56 -312.14,0 -772.52,284.69 -772.52,561.83z"/>
   <path class="fil1" d="M77995.65 23653.63c0,1624.83 1404.6,851.07 1404.6,140.43 0,-1283.16 -1404.6,-888.15 -1404.6,-140.43z"/>
   <path class="fil2" d="M132846.43 41984c0,223.97 -11.04,458.8 206.21,559.59 266.27,123.51 44.96,49.27 144.92,2.24 42.8,-17.76 269.34,65.86 229.35,-511.31 -91.99,-1328.45 262.29,-1406.26 262.29,-2227.72 -184.73,-43.05 -206.38,-63.87 -351.21,-140.43 -323.09,482.52 -491.56,1684.47 -491.56,2317.63z"/>
   <path class="fil2" d="M65213.49 42054.18c0,891.63 561.82,595.83 561.82,210.69 0,-390.86 -74.9,-291.98 -32.85,-660.37 26.3,-230.18 53.59,-548.55 82.12,-694.95 126.67,-648.18 336.12,-780.48 91.25,-1243.18 -463.86,108 -480.28,486.25 -563.48,981.55 -75.32,447.68 -138.86,882.01 -138.86,1406.26z"/>
   <path class="fil12" d="M77504 50200.99l0 2106.94 632.08 0 0 -2317.64 -421.39 0c-161.83,0 -210.69,48.94 -210.69,210.7z"/>
   <path class="fil8" d="M34241.39 48023.87c0,788.03 -47.12,702.26 913.03,702.26 367.23,0 280.96,-440.14 280.96,-842.78 0,-331.97 -545.15,-210.69 -1123.73,-210.69 -36.67,157.52 -70.26,161.5 -70.26,351.21z"/>
   <path class="fil10" d="M20278.76 46829.88l254.5 492.81c298.2,-60.64 492.06,-201.57 854.22,-198.09 340.93,3.32 559.67,146.74 851.15,212.44l220.49 -507.16c-748.22,-347.15 -1425.76,-406.62 -2180.36,0z"/>
   <path class="fil2" d="M89794.51 38402.2c0,534.54 570.62,912.96 913.03,912.96 229.2,0 983.22,-336.45 983.22,-772.52 0,-570.12 -299.87,280.95 -1123.73,280.95 -394.18,0 -265.61,-515.53 -702.26,-632.08 -48.2,85.61 -70.26,75.07 -70.26,210.69z"/>
   <path class="fil2" d="M133478.51 38331.95c0,341.17 7.46,425.2 140.43,702.34 438.06,-102.12 561.83,-308.83 561.83,-842.78 -115.14,-26.88 -70.26,42.55 -280.87,-140.52 -141.93,95.06 -279.55,185.89 -421.39,280.96z"/>
   <polygon class="fil13" points="77504,49849.86 78136.08,49849.86 78136.08,49288.03 77504,49288.03 "/>
   <path class="fil12" d="M88249.39 49568.9c0,164.41 116.55,280.96 280.96,280.96l280.95 0 0 -561.83 -561.91 0 0 280.87z"/>
   <path class="fil12" d="M88951.73 49639.16c0,304.1 561.83,304.1 561.83,0l0 -351.13 -561.83 0 0 351.13z"/>
   <path class="fil14" d="M20638.69 50690.72c71.17,-181.74 67.1,-181.57 -19.08,-342.91 -629.6,-48.36 -228.03,610.01 -72,701.43 289,169.46 299.03,5.55 300.94,4.72 91.74,-350.79 -16.75,-267.18 -209.86,-363.24z"/>
   <path class="fil9" d="M21903.02 51091.29c432.67,30.53 621.88,-256.48 508.32,-718.6 -481.36,-133.55 -319.28,125.67 -350.3,255.24 -56.99,237.65 -221.9,78.47 -158.02,463.36z"/>
   <path class="fil12" d="M84246.21 49568.9c0,169.55 193.94,466.35 565.22,143.84l66.86 -73.58c-43.05,-184.65 -63.87,-206.38 -140.44,-351.13 -183.98,0 -491.64,-36.41 -491.64,280.87z"/>
   <path class="fil2" d="M112409.03 39034.29l0 210.69c218.99,115.8 220.23,140.44 561.9,140.44 0,-326.58 50.44,-561.83 -351.21,-561.83 -161.84,0 -210.69,48.86 -210.69,210.7z"/>
   <path class="fil2" d="M113462.5 38823.59c0,492.98 -43.97,491.57 421.38,491.57 222.31,-420.15 139.94,-262.62 70.26,-561.83 -222.55,0 -334.04,9.05 -491.64,70.26z"/>
   <path class="fil12" d="M83614.13 49849.86l280.95 0c161.83,0 210.69,-48.86 210.69,-210.7l0 -351.13 -491.64 0 0 561.83z"/>
   <path class="fil2" d="M119010.8 38893.77c19.82,238.56 53.5,257.14 140.43,421.39 472.16,0 421.39,36.74 421.39,-561.83 -564.39,0 -184.89,28.95 -561.82,140.44z"/>
   <path class="fil2" d="M118027.59 39034.29l0 210.69c780.89,413.18 690.06,-421.39 210.69,-421.39 -161.83,0 -210.69,48.86 -210.69,210.7z"/>
   <path class="fil6" d="M21063.72 52985.88c260.47,193.44 358.52,126.5 624.46,42.55l-301.61 -247.52 -322.85 204.97z"/>
  </g>
 </g>
</svg>
