<?xml version="1.0" encoding="UTF-8"?>
<!DOCTYPE svg PUBLIC "-//W3C//DTD SVG 1.1//EN" "http://www.w3.org/Graphics/SVG/1.1/DTD/svg11.dtd">
<!-- Creator: CorelDRAW 2020 (64-Bit) -->
<svg xmlns="http://www.w3.org/2000/svg" xml:space="preserve" width="800mm" height="600mm" version="1.1" style="shape-rendering:geometricPrecision; text-rendering:geometricPrecision; image-rendering:optimizeQuality; fill-rule:evenodd; clip-rule:evenodd"
viewBox="0 0 80000 60000"
 xmlns:xlink="http://www.w3.org/1999/xlink"
 xmlns:xodm="http://www.corel.com/coreldraw/odm/2003">
 <defs>
  <style type="text/css">
   <![CDATA[
    .fil7 {fill:#0056B6}
    .fil8 {fill:#008A80}
    .fil10 {fill:#008B80}
    .fil1 {fill:#008F7C}
    .fil11 {fill:#010117}
    .fil12 {fill:#050901}
    .fil13 {fill:#060A01}
    .fil4 {fill:#292020}
    .fil5 {fill:#292121}
    .fil9 {fill:#373434}
    .fil14 {fill:#393637}
    .fil0 {fill:#A9D0DF}
    .fil3 {fill:#D20B29}
    .fil2 {fill:#F29511}
    .fil6 {fill:#FDFDFD}
   ]]>
  </style>
 </defs>
 <g id="Katman_x0020_1">
  <metadata id="CorelCorpID_0Corel-Layer"/>
  <g id="_3047402980176">
   <path class="fil0" d="M18193.79 31903.12l0 0zm0 0l823.49 432.05c228.51,-445.44 235.18,-620.7 -111.88,-931.35 -135.64,-121.4 -591.26,-476.23 -754.03,-519.66l0 -1995.48c239.34,126.67 1101.09,997.09 1310.1,1238.44 164.47,189.95 10.38,734.88 -18.61,1072.76 -51.3,599.04 33.05,618.29 619.05,618.29 196.27,-293.1 212.26,-370.87 212.26,-849.11 412.25,276.05 589.51,783.37 1188.8,382.11 0,-712.32 -313.31,-620.15 -551.95,-976.48 420.22,0 853.32,-120.65 934.05,-467.06 -192.15,-824.69 -1467.6,-76.07 -1857.98,-392.03 -332.76,-269.38 -1015.69,-926.79 -1241.35,-1263.77 644.97,0 1456.42,-238.24 2025.87,54.51 511.54,263.07 435.32,987.97 1285.73,1006.92 419.62,-874.53 -87,-523.77 -212.27,-1061.43 435.72,0 1294.31,-26.57 934.01,-594.37 -74.06,-277.5 -581.48,-297.21 -934.01,-297.21 98.04,-367.26 339.64,-235.38 339.64,-934.01 -539.01,-44.88 -282.32,-354.62 -839.33,222.05 -143.37,148.43 -509.68,601.94 -561.73,796.91l-1995.44 0c60.03,-224.96 770.19,-957.13 965.05,-1157.76 439.88,-452.76 1099.84,-158.41 1837.08,-158.41l84.89 -594.37c-81.18,-224.25 -513.59,-254.74 -806.69,-254.74 58.77,-220.04 820.53,-705.9 417.56,-1053.85 -442.73,-382.21 -849.96,322.58 -1054.4,459.43 0,-1386.87 -1105.51,-1319.33 -758.9,335.92 113.08,539.92 -211.56,655.75 -525.42,969.61 -202.09,202.14 -593.83,639.46 -796.01,774.85l-28.28 -1995.74c280.41,-78.37 1089.66,-739.09 1089.66,-1188.49 -431.81,-644.82 -770.44,80.78 -1103.85,169.84 10.68,-478.99 162.27,-972.07 -391.59,-1008.47 -484.3,-31.84 -447.45,619.39 -415.1,1008.47 -185.44,-98.13 -424.53,-308.19 -621.6,-359.79 -410.04,-107.46 -1116.89,214.57 621.6,1378.74l0 2037.91 -1439.42 -1315.91 101.49 -1569.8c-613.58,-398.36 -827.35,15.04 -827.35,720.43 -320.58,-74.71 -656.5,-772.73 -1047.74,-499.44 -465.09,324.89 359.6,1017.25 410.9,1093.82 -554.91,0 -985.61,178.31 -849.12,764.21 566.2,379.15 1368.52,-283.67 1880.4,242.41 222.25,228.46 1034.6,1013.28 1133.99,1201.13l-1995.43 0c-442.18,-660.37 -1036.21,-1614.23 -1486.01,-764.22l411.84 703.14c-675.15,18.6 -1006.21,14.04 -1006.21,655.45 389.13,260.55 399.56,212.26 1018.95,212.26 -110.57,208.96 -326.29,375.24 -373.83,608.97 -142.77,701.88 724.7,653.69 1392.79,-608.97l2037.9 0 -1368.77 1390.94c-591.36,-39.92 -1405.52,-391.89 -1730.56,222.44 89.31,383.11 471.92,509.48 934.06,509.48 -138.2,206.35 -887.03,692.66 -410.64,1048.54 441.68,330 785.57,-321.23 1047.48,-496.64 0,436.06 119.05,1025.17 574.82,917.21 433.25,-102.55 251.23,-849.27 229.86,-1258.35 -29.38,-562.83 284.58,-740.55 583.04,-988.37 283.73,-235.58 447,-663.92 820.03,-750.82l0 1995.43c-310.9,164.53 -1662.47,1063.13 -891.58,1401.06 224.3,142.31 732.12,-275.35 891.58,-382.11 -35.7,428.75 -65.39,934.36 353.38,1011.74 518.9,95.82 495.73,-505.37 495.73,-969.26z"/>
   <path class="fil1" d="M36365.16 24133.6l23.37 -91.32 -23.37 91.32zm0 0c0,1194.06 -141.96,2456.57 -129.02,3610.46 5.66,505.47 67.19,1302.88 383.26,1484.96 465.3,268.12 1063.78,-177.77 1486.51,-212.97l-37.26 -298.01c-721.14,60.42 -928.14,297.06 -1050.15,-610.02 -74.31,-552.75 -33.79,-1282.97 17.56,-1775.15 50.84,-487.86 33.64,-1301.27 50.49,-1775.14 20.11,-567.35 127.77,-1125.16 127.77,-1697.82 -630.98,-52.51 -593.42,-333.07 -1063.28,762.36 -289.89,675.86 -1805.58,4028.97 -1823.79,4247.46 -138.85,-101.75 -1160.91,-3207.2 -1320.92,-3646.42 -233.28,-640.26 -229.77,-1463.14 -1097.29,-1406.33 -145.12,9.48 -972.11,171.1 -1029.83,211.11 -178.72,124.01 -110.57,312.81 153.29,286.84 210.61,-20.76 392.54,-76.78 577.53,11.98 358.94,311.05 -79.83,3790.24 -243.41,4596.57 -73.76,363.41 -350.96,1110.42 -350.96,1347.31 724.34,0 768.47,-60.38 858.13,-712.72 152.34,-1108.01 203.29,-3400.35 203.29,-4594.31 242.2,348.56 1366.86,3865.8 1671.75,4781.61 89.46,268.87 83.44,561.57 366.16,567.89l2250.17 -5179.66z"/>
   <path class="fil2" d="M5881.4 17934.98l0 -339.68c0,-783.17 733.18,-1570.86 1528.49,-1570.86l297.16 0c875.33,0 1570.9,795.66 1570.9,1613.33l0 297.21c0,731.32 -859.89,1443.49 -1783.17,1443.49 -757.75,0 -1613.38,-720.94 -1613.38,-1443.49zm-1018.95 -551.95l0 424.58c0,1393.64 1248.32,2632.28 2632.33,2632.28 1395.35,0 2844.6,-1108.06 2844.6,-2462.49l0 -382.1c0,-1427.99 -1275.3,-2632.28 -2717.23,-2632.28 -924.13,0 -1365.46,292.7 -1874.33,715.52 -345.4,286.93 -885.37,1088.91 -885.37,1704.49z"/>
   <path class="fil3" d="M70500.15 39630.16c0,731.27 571.16,2032.5 1146.37,2080.33 0,-816.26 263.42,-1037.9 297.16,-1443.48 354.48,29.49 244.46,467 1188.8,467 155,0 195.32,-200.53 339.63,-297.21 0,386.82 -64.68,403.02 205.3,558.97 170.49,98.49 302.27,162.82 601.39,162.82l315.92 -626.96 -486.91 -38.21 -52.26 -352.32c606.16,-135.05 511.69,45.88 732.73,125.91l382.11 -382.11c0,-486.86 -236.19,-431.7 -493.94,-652.39 -325.34,-278.56 132.69,-399.36 -542.32,-646.47 -342.44,-125.42 -540.16,-185.39 -824.14,-364.66 -187.89,-118.64 -518.95,-441.78 -729.46,-459.33l-25.62 299.17 -1031.04 -162.88c143.96,-188.49 760.75,-482.04 1117.39,-542.92 533.19,-91.01 1017.59,-0.75 1438.16,181.48 690.71,299.21 1345.7,1119.19 1345.7,2093.26 0,1206.35 -1017.54,2335.07 -2207.74,2335.07 -889.63,0 -798.67,-211.66 -1316.12,-254.74 11.13,500.96 790.74,509.48 1231.22,509.48 1326.14,0 2547.38,-1198.37 2547.38,-2504.91 0,-1413.95 -1170.89,-2674.75 -2547.38,-2674.75 -1410.49,0 -2632.33,1179.22 -2632.33,2589.85z"/>
   <path class="fil1" d="M29784.44 15642.34c0,1613.92 666.63,3119.19 2158.7,3615.33 132.09,43.92 555.86,121.25 643.42,163.27 -161.87,241.7 -467.06,509.88 -467.06,806.64 0,393.54 653.05,479.39 700.28,859.39 50,402.46 -572.91,866.91 -572.91,1008.72 0,513.14 1273.7,-707.9 1273.7,-1486.01 0,-197.67 -597.29,-572.15 -764.22,-764.21 157.06,-674.1 316.87,-217.98 1523.27,-726.91 374.88,-158.16 1065.89,-695.66 1278.9,-1013.79l-134.24 -207.8c-487.96,110.82 -983.1,887.12 -1903.71,887.12l-551.9 0c-1456.48,0 -2207.75,-1845.45 -2207.75,-3481.44 0,-1535.7 833.01,-3269.12 2292.64,-3269.12l382.11 0c1048.39,0 1698.27,649.38 1698.27,1740.69l297.21 0c61.53,-264.11 38.72,-678.77 71.76,-947.34 54.31,-441.98 44.63,-628.73 -215.02,-819.93 -492.38,-362.65 -1145.77,-482.9 -1852.22,-482.9 -2126.36,0 -3651.23,1956.72 -3651.23,4118.29z"/>
   <path class="fil4" d="M5711.61 32582.39l340.04 211.76 14695.74 -19747.89 -427.23 -254.08c-557.17,832.31 -1257.9,1623.3 -1837.73,2459.42 -576.72,831.61 -1221.29,1634.29 -1835.27,2452.86l-9176.65 12306.27c-301.97,402.67 -1758.9,2162.72 -1758.9,2571.66z"/>
   <path class="fil5" d="M25071.78 12373.16l0 24327.51c0,177.27 147.32,127.37 509.47,127.37l0 -24454.88c0,-271.69 -509.47,-193.76 -509.47,0z"/>
   <path class="fil1" d="M57126.39 28633.94c-876.85,0 -654.5,-3099.28 891.58,-3099.28 311.45,0 600.19,-12.44 891.58,127.37 -201.68,865.66 -239.94,1073.41 -593.77,1783.77 -178.11,357.69 -710.81,1188.14 -1189.39,1188.14zm1825.64 -3269.12c-272.19,-22.67 -418.11,-212.27 -891.59,-212.27 -1188.94,0 -2165.27,1379.4 -2165.27,2547.39l0 297.16c0,548.09 352.27,1316.16 849.11,1316.16 602.9,0 933.6,-310 1358.19,-891.98 235.23,-322.39 573.46,-1144.67 722.19,-1315.77 0,1951.16 -238.19,2560.02 1127.97,1977.13 355.93,-151.84 470.36,-118.84 442.88,-448.7 -277.2,133.04 -552.6,154 -849.11,84.95 -303.63,-1303.28 35.75,-3737.23 179.27,-5255.13 49.69,-525.28 202.84,-1186.74 202.84,-1707.75 -752.53,-175.31 -845.55,-203.24 -891.94,1570.55 -17.3,661.52 -84.54,1277.6 -84.54,2038.26z"/>
   <path class="fil1" d="M70627.52 29228.37l636.54 -45.99c84,-1002.35 848.61,-3595.12 2080.68,-3308.09 59.38,222.35 84.95,9.38 84.95,297.22 0,758.84 -1443.53,1121.35 -1443.53,1231.21 0,55.46 810.04,1910.54 1485.95,1910.54 412.1,0 1044.33,-321.33 1188.8,-594.37 -405.88,-228.06 -689.35,624.96 -1443.89,-509.13 -129.47,-194.56 -460.53,-616.43 -466.65,-891.93 363.51,-30.29 1316.17,-748.87 1316.17,-1528.43 0,-786.13 -1231.67,-1237.19 -2406.13,947.95 -131.58,244.85 -212.16,589.25 -353.57,792.74l493.13 -5775.54c-216.68,-54.2 -133.59,-83.44 -450.66,-83.44 -539.06,0 -334.72,1137.25 -395.35,1642.56 -57.61,480.19 -117.08,1452.56 -115.23,1965.15 4.76,1289.59 -211.21,2685.83 -211.21,3949.55z"/>
   <path class="fil1" d="M43795.05 27445.2l12.68 12.63c-0.85,-0.8 -16.9,-8.42 -12.68,-12.63zm-636.85 1825.59l635.34 -94.98c266.47,-1113.62 226.81,-1865.7 1038.01,-2944.33 318.52,-423.48 999.55,-674.11 1004.06,194.61 3.21,619.1 -87.55,1468.01 -87.55,2292.8 0,1116.53 1458.17,373.43 1655.8,0 -208.06,-173.81 -1018.96,409.54 -1018.96,-339.69 0,-763.01 78.68,-1396.09 141.51,-2163.92 103.45,-1263.81 -1355.18,-1603.65 -2208.4,139.51 -137.25,280.36 -335.62,839.43 -480.49,1047.93 0,-834.16 295.41,-4165.77 445.49,-5246.65 61.08,-439.78 35.8,-484.96 -403.02,-484.96 -539.36,0 -404.07,1132.93 -424.43,1655.95 -22.36,574.72 -31.59,1391.43 -93.52,1986.86 -124.61,1197.87 -203.84,2654.19 -203.84,3956.87z"/>
   <path class="fil1" d="M37511.48 18699.2c-351.67,0 -509.47,-198.83 -509.47,-594.43 0,-879.09 966.75,-1103.85 1868.11,-1103.85 -91.36,190.36 -59.47,583.9 -442.28,1086.15 -189.55,248.72 -510.78,612.13 -916.36,612.13zm-1061.37 -2929.49c0,268.02 248.72,509.47 509.47,509.47 201.44,0 306.64,-47.59 467.01,-84.94 -49.95,-214.48 -212.27,-423.18 -212.27,-721.75 0,-639.5 876.74,-697.67 1332.01,-440.47 515.9,291.49 366.21,942.08 366.21,1629.27 -3431.54,0 -3213.26,2759.65 -1825.59,2759.65 1087.56,0 1554.56,-1233.58 1783.17,-1401.06 0,2110.31 1784.82,1236.98 2037.91,891.58l-99.64 -160.66c-255.89,117.94 -369.32,160.66 -664.58,160.66 -575.72,0 -522.21,-933.05 -509.47,-1316.16 39.21,-1181.03 530.99,-3141.76 -1146.33,-3141.76 -843.74,0 -2037.9,570.1 -2037.9,1316.17z"/>
   <path class="fil1" d="M45535.79 18699.2c-431.9,0 -509.48,-218.94 -509.48,-679.32 0,-788.89 1036.86,-1018.96 1868.07,-1018.96 -117.84,245.62 -16.8,468.41 -448.9,1079.53 -172.85,244.51 -524.37,618.75 -909.69,618.75zm-551.95 -2420.02c320.43,0 233.23,-30.49 467.01,-84.94 -76.28,-327.35 -212.27,-233.43 -212.27,-764.22 0,-575.17 899.31,-641.81 1315.61,-381.6 555.56,347.25 382.66,843.94 382.66,1612.87 -3443.13,0 -3240.79,2759.65 -1783.17,2759.65 482.55,0 805.14,-277.2 1060.48,-510.38 231.87,-211.76 544.02,-790.89 680.22,-890.68 0,2307.49 2260.05,1069.1 1953.01,764.21 -73.91,-73.36 -216.03,127.37 -679.32,127.37 -850.87,0 -424.58,-2065.94 -424.58,-3099.33 0,-824.29 -405.27,-1358.59 -1231.22,-1358.59 -1972.16,0 -2537.7,1825.64 -1528.43,1825.64z"/>
   <path class="fil1" d="M49144.55 15684.76c0,1158.61 589.66,1253.88 1628.17,1768.38 361.95,179.37 705.4,326.54 772.59,802.32 104.1,737.24 -1153.14,925.73 -1692.41,414.65 -310.9,-294.6 -171.59,-370.37 -326.24,-692.71 -396.6,190.31 -636.85,-23.16 -636.85,636.85 0,437.57 859.8,768.73 1316.17,806.69 -97.08,144.97 -467.01,574.41 -467.01,764.21 0,665.08 1356.03,412.35 325.05,1641.61 -319.48,380.96 -181.88,590.16 151.94,281.62 2032.74,-1878.95 202.28,-1785.33 202.28,-2305.33 0,-505.92 688.85,-388.38 1129.63,-653.55 500.15,-300.92 696.01,-708.75 696.01,-1299.46 0,-1154.7 -2462.48,-1282.97 -2462.48,-2250.18 0,-647.82 619.89,-679.32 1018.95,-679.32 1127.72,0 358.69,934.06 721.79,934.06 1210.01,0 857.54,-1401.06 -594.42,-1401.06 -762.71,0 -1783.17,531.09 -1783.17,1231.22z"/>
   <path class="fil6" d="M6107.11 39841.28c116.74,58.06 182.33,7.52 126.87,219.58 -1.16,0.5 -7.22,99.59 -181.93,-2.86 -94.32,-55.26 -337.08,-453.26 43.53,-424.02 52.1,97.53 54.55,97.43 11.53,207.3zm1071.61 -192.26c68.64,279.36 -45.74,452.86 -307.3,434.41 -38.61,-232.68 61.08,-136.45 95.53,-280.11 18.76,-78.33 -79.23,-235.03 211.77,-154.3zm-1329.76 -858.84c-319.93,-165.43 -768.28,-1355.63 -547.79,-1776.25 301.63,41.32 951.01,1296.16 1037.21,1751.73l392.19 -8.58c211.16,-344.04 728.06,-1767.87 1065.99,-1732.07 269.03,378.55 -230.27,1687.95 -540.77,1747.87 97.93,-243.21 600.99,-1094.47 451.26,-1416.56 -154.1,82.49 -613.38,1183.73 -576.83,1462.69 28.39,217.08 333.27,220.99 322.89,725.41 -7.12,347.35 -114.18,582.13 -90.76,977.83l579.08 -14.64c-117.9,105.55 -340.04,90.21 -491.73,97.88 -415.35,20.91 -221.79,3.41 -469.21,-115.43 13.84,-403.92 580.83,-450.46 277.3,-1167.54 -576.32,-76.47 -584.89,766.93 -505.76,1264.92 14.34,90.11 -301.73,632.13 205.19,464.55 282.82,-93.48 295.86,-274.4 827.1,-118.7l-501.9 41.52c-605.01,394.7 -695.57,807.24 -1443.44,-0.65l-508.47 10.48c499.35,-369.22 947.14,363.85 1119.54,-28.08 65.84,-272.24 -164.02,-84.3 -106.61,-358.79 45.59,-218.28 135.9,-160.12 84.2,-534.7 -44.58,-323.24 -212.62,-729.67 -503.76,-753.28 -497.24,383.01 156.35,908.93 204.89,1127.01 -211.71,266.68 -603.3,177.47 -965.65,130.33l579.48 -55.31c24.52,-371.83 -72.61,-589.41 -89.21,-925.03 -25.22,-510.23 270.64,-558.42 321.49,-738.04 64.58,-228.16 -411.5,-1378.65 -560.48,-1494.68 -199.28,260.65 364.66,1202.18 434.56,1436.11zm-561.93 -686.29c431.05,564.04 -507.22,894.39 -258.65,2289.19 134.84,756.69 671.15,1508.52 1491.68,1528.07 1183.28,28.24 1877.59,-1393.13 1454.61,-2770.17 -143.16,-466.06 -463.44,-687.65 -140.25,-1068.25 53.55,-522.26 343.09,-699.93 0,-1212.26 -390.39,90.96 -428.7,352.87 -626.82,636.84l-133.29 306.59c-176.21,-39.72 -308.44,-126.42 -514.54,-128.42 -218.93,-2.11 -336.12,83.09 -516.4,119.74l-153.84 -297.91c-110.47,-171.95 -378.8,-724.55 -602.5,-594.37 -398.8,106.51 -49.74,972.17 0,1190.95z"/>
   <path class="fil7" d="M30718.44 40861.38l-509.47 0 0 -1868.06c803.02,0 1401.06,-82.29 1401.06,976.48 0,550.19 -341.34,891.58 -891.59,891.58zm-1401.06 -2674.75l0 3481.44 1528.43 0c2149.38,0 2460.79,-3523.91 -254.74,-3523.91 -633.78,0 -671.14,-20.56 -1273.69,42.47z"/>
   <path class="fil1" d="M41587.3 14708.28c-378.75,8.42 -860.85,98.13 -891.59,467l848.36 -55.21 -147.63 2006.87c-36.2,1528.43 136.35,2838.53 1943.99,2051.65 780.66,-339.84 635.79,-375.84 581.99,-606.76 -292.55,68.15 -641.66,254.74 -976.49,254.74 -1172.29,0 -636.84,-2601.19 -636.84,-3693.71l1230.77 51.25c140.25,-1.81 297.66,-166.38 297.66,-305.99 0,-97.28 -14.39,-49.39 -42.47,-169.84 -703.04,78.63 -732.88,56.61 -1442.79,-6.67l390.39 -2581.73 -560.93 -43.88c-338.88,0 -594.42,2147.72 -594.42,2632.28z"/>
   <path class="fil1" d="M37893.59 25577.08c0,249.63 -20.76,84.95 806.69,84.95 114.63,1209.15 -102.55,1477.23 -84.9,2589.8 0,466.96 192.71,1061.43 636.85,1061.43 641.46,0 977.53,-275.35 1324.69,-840.59 383.36,-624.1 464.14,-1175.3 585.85,-1367.16 -53.81,653.75 -229.72,2207.75 764.21,2207.75 630.03,0 1198.68,-592.47 794.25,-558.22 -111.72,9.48 -203.69,133.64 -454.61,133.64 -387.23,0 -540.92,-1012.58 -509.48,-1485.96l125.76 -2207.85c-1148.78,0.61 -382.2,98.14 -1097.28,2085.45 -535,1486.96 -1558.21,1914.6 -1490.97,504.51 43.53,-911.74 145.92,-973.82 127.37,-2080.38 0,-515.69 -140.31,-605.85 -618.64,-492.63 -201.94,47.84 -909.79,193.16 -909.79,365.26z"/>
   <path class="fil1" d="M52116.52 27445.2c50.49,-535.2 164.57,-1459.63 127.36,-1953.01 -48.24,-640.26 -1081.53,-76.12 -1485.95,-42.48l0 254.74c980.74,-116.24 856.58,-339.38 807.94,1699.53 -14.54,609.46 -86.2,1164.52 -86.2,1866.81l635.34 -94.98c1.51,-1040.31 799.07,-3343.99 1614.88,-3343.99 969.56,0 -292.35,3481.44 721.74,3481.44 345.96,0 1340.29,-321.13 1188.8,-636.84 -108.57,-51.15 -1031.64,386.52 -976.53,-297.22 56.46,-732.52 150.13,-1473.67 127.37,-2207.69 -41.47,-1338.43 -1266.87,-1361.8 -2020.51,-110.02 -188.8,313.55 -508.72,1216.27 -654.24,1383.71z"/>
   <path class="fil1" d="M66764.02 29313.26c446.09,0 773.74,-204.29 1110.17,-379.1 214.62,-111.52 140.46,-66.74 121.05,-300.22l-802.03 156.36c-270.93,-1173.15 -63.08,-3911.89 98.44,-5317.87 60.43,-526.22 194.11,-1220.49 194.11,-1716.42 -840.33,-195.77 -846.95,-106.01 -891.93,1613.02 -27.23,1041.17 -531.69,5944.23 170.19,5944.23z"/>
   <path class="fil1" d="M48252.97 26935.72c169.64,-728.16 338.43,-1401.06 1103.9,-1401.06 524.47,0 1201.03,1209.25 -1103.9,1401.06zm-679.27 424.53l0 382.11c0,753.48 642.41,1570.9 1401.06,1570.9 778,0 1503.51,-462.74 1613.33,-934.06 -303.89,-81.13 -213.87,-56.61 -503.41,175.81 -747.12,599.89 -1831.71,110.62 -1831.71,-1322.13 780.16,-17.35 2377.59,-379.7 2377.59,-1231.22 0,-460.73 -449.05,-849.11 -891.59,-849.11 -1233.62,0 -2165.27,1037.76 -2165.27,2207.7z"/>
   <path class="fil1" d="M62900.47 26256.4c0,845.4 628.52,1039.56 1415.66,1428.94 1084.19,536.31 700.88,1245.81 -184.44,1245.81 -456.02,0 -838.93,-349.46 -849.11,-806.68 -978.54,21.81 -810.15,1188.79 891.58,1188.79 559.02,0 1358.59,-477.18 1358.59,-976.48l0 -169.84c0,-1288.03 -2080.33,-1231.62 -2080.33,-2037.91 0,-583.39 598.39,-594.37 976.48,-594.37 494.74,0 424.58,369.62 424.58,764.21 989.67,236.94 900.26,-1146.32 -254.74,-1146.32l-254.73 0c-638.1,0 -1443.54,464 -1443.54,1103.85z"/>
   <path class="fil8" d="M9999.69 41583.12l806.69 0 1094.62 -3556.2 -712.51 -10.13 -758.6 2814.86 -766.67 -2815.66c-758,0.8 -800.87,-141.11 -603.7,473.52 112.82,351.57 212.26,685.18 317.87,1041.17 197.87,667.03 473.17,1412.39 622.3,2052.44z"/>
   <path class="fil7" d="M31653.25 38191.75c167.99,141.56 325.35,167.43 479.14,321.63 155.75,156.2 203.49,368.01 400.11,449.1 653.55,269.48 860.7,101.79 860.7,1092.21 0,611.03 -408.74,675.41 -850.62,805.19 -217.73,63.93 -259.65,292.95 -412.8,436.31 -150.78,141.11 -382.1,229.72 -477.28,371.88 856.94,0 1366.26,60.08 1920.17,-287.58 1152.49,-723.45 1343.74,-3595.62 -1919.42,-3188.74z"/>
   <path class="fil8" d="M12334.81 40818.91c0,-419.57 518.65,-339.63 849.11,-339.63l0 509.47c-20.91,5.62 -849.11,580.99 -849.11,-169.84zm-424.58 -1528.43c0,443.13 63.88,212.32 934.06,212.32 293.1,0 339.63,212.61 339.63,509.47 -725.7,0 -1528.43,55.91 -1528.43,849.11 0,710.36 446.24,806.69 891.59,806.69 332.11,0 488.41,-169.34 679.31,-297.21 7.23,323.04 239.65,212.26 594.38,212.26 88.85,-381.25 42.47,-910.58 42.47,-1316.11 0,-1063.13 -155.9,-1316.16 -1061.43,-1316.16 -349.76,0 -891.58,-21.57 -891.58,339.63z"/>
   <path class="fil8" d="M18491 40861.38c0,-450.1 494.49,-382.1 849.11,-382.1l0 424.58c0,234.83 -849.11,533.74 -849.11,-42.48zm-467 -1570.9l42.42 297.21c372.58,-56.06 1273.69,-292.1 1273.69,254.74l0 169.84c-1284.22,0 -1485.95,241.6 -1485.95,976.48 0,842.04 1183.43,812.96 1443.53,424.58 310.2,125.22 -257.85,169.79 594.37,169.79 97.84,0 127.37,-29.53 127.37,-127.36l0 -1570.86c0,-764.41 -377.64,-934.05 -1018.95,-934.05 -366.01,0 -976.48,-36.81 -976.48,339.63z"/>
   <path class="fil8" d="M21123.28 39248.06c-5.56,-250.73 15.9,-212.32 -467,-212.32 -97.83,0 -127.37,29.59 -127.37,127.37l0 2292.65c0,181.17 162.92,127.36 551.95,127.36 216.58,0 127.37,-631.38 127.37,-849.11 -0.05,-339.63 0,-679.32 0,-1018.95 1656.55,-876.54 471.27,1868.06 1018.95,1868.06 388.98,0 551.9,53.81 551.9,-127.36l0 -1698.23c0,-534.04 -272.64,-806.68 -806.64,-806.68 -504.21,0 -598.13,230.16 -849.16,297.21z"/>
   <path class="fil9" d="M6559.22 41104.84l182.33 149.63c-160.77,50.75 -220.04,91.22 -377.5,-25.72l195.17 -123.91zm-710.26 -2314.66c-69.9,-233.93 -633.84,-1175.46 -434.56,-1436.11 148.98,116.03 625.06,1266.52 560.48,1494.68 -50.85,179.62 -346.71,227.81 -321.49,738.04 16.6,335.62 113.73,553.2 89.21,925.03l-579.48 55.31c362.35,47.14 753.94,136.35 965.65,-130.33 -48.54,-218.08 -702.13,-744 -204.89,-1127.01 291.14,23.61 459.18,430.04 503.76,753.28 51.7,374.58 -38.61,316.42 -84.2,534.7 -57.41,274.49 172.45,86.55 106.61,358.79 -172.4,391.93 -620.19,-341.14 -1119.54,28.08l508.47 -10.48c747.87,807.89 838.43,395.35 1443.44,0.65l501.9 -41.52c-531.24,-155.7 -544.28,25.22 -827.1,118.7 -506.92,167.58 -190.85,-374.44 -205.19,-464.55 -79.13,-497.99 -70.56,-1341.39 505.76,-1264.92 303.53,717.08 -263.46,763.62 -277.3,1167.54 247.42,118.84 53.86,136.34 469.21,115.43 151.69,-7.67 373.83,7.67 491.73,-97.88l-579.08 14.64c-23.42,-395.7 83.64,-630.48 90.76,-977.83 10.38,-504.42 -294.5,-508.33 -322.89,-725.41 -36.55,-278.96 422.73,-1380.2 576.83,-1462.69 149.73,322.09 -353.33,1173.35 -451.26,1416.56 310.5,-59.92 809.8,-1369.32 540.77,-1747.87 -337.93,-35.8 -854.83,1388.03 -1065.99,1732.07l-392.19 8.58c-86.2,-455.57 -735.58,-1710.41 -1037.21,-1751.73 -220.49,420.62 227.86,1610.82 547.79,1776.25z"/>
   <path class="fil10" d="M7834.42 38082.73c-323.19,380.6 -2.91,602.19 140.25,1068.25 422.98,1377.04 -271.33,2798.41 -1454.61,2770.17 -820.53,-19.55 -1356.84,-771.38 -1491.68,-1528.07 -248.57,-1394.8 689.7,-1725.15 258.65,-2289.19 -472.62,330.16 -773.14,1767.37 -543.77,2621.95 192.6,717.63 783.72,1476.63 1689.34,1536.6l225.66 0c1482.24,-95.42 2530.03,-2116.38 1176.16,-4179.71z"/>
   <path class="fil11" d="M67018.76 38950.85c-214.07,-143.32 -16.3,-127.37 -509.48,-127.37l0 1910.53 424.53 0c0,-586.85 -121.6,-1528.43 382.11,-1528.43 575.22,0 424.58,766.58 424.58,1528.43l467 0c0,-722.39 -141.1,-1528.43 382.11,-1528.43 570.2,0 424.58,859.04 424.58,1528.43l467.01 0c0,-838.38 194.36,-1953.01 -806.64,-1953.01 -379.2,0 -508.58,176.36 -646.33,191.71 -192.5,21.41 -653.14,-508.22 -1009.47,-21.86z"/>
   <path class="fil1" d="M68589.61 27105.51l0 1443.54c0,343.54 132.29,764.21 467.06,764.21 338.88,0 1292.74,-331.71 1146.32,-636.84 -264.27,-124.52 -976.53,609.01 -976.53,-594.38 0,-935.91 91.61,-1869.87 154.5,-2803.37 -933.76,-614.28 -791.35,1135.84 -791.35,1826.84z"/>
   <path class="fil8" d="M23288.56 38526.26l0 2292.65c0,933.86 660.56,849.16 1188.79,849.16 409.84,0 339.64,-121.05 339.64,-551.95 -1020.01,0 -849.11,182.08 -849.11,-1528.43 933.15,0 806.69,102.6 806.69,-424.58 0,-202.74 -284.28,-127.37 -806.69,-127.37 0,-756.64 114.28,-636.84 -551.95,-636.84 -97.79,0 -127.37,29.58 -127.37,127.36z"/>
   <path class="fil1" d="M60989.93 27572.57c0,1208.3 -159.81,2352.56 1495.59,1364.85 209.21,-124.81 137.65,-64.33 117.74,-303.48 -287.63,138 -416.61,127.37 -721.74,127.37 -430.6,0 -202.94,-2392.73 -183.98,-2561.52 75.26,-669.29 262.21,-1004.82 -325.5,-1004.82 -443.33,0 -333.31,577.38 -337.98,1020.66 -4.41,416.31 -44.13,871.78 -44.13,1356.94z"/>
   <path class="fil3" d="M54196.9 40351.91c-528.24,0 -509.48,-278.31 -509.48,-679.32 0,-736.04 1018.95,-407.83 1018.95,-84.9 0,342.34 -36.45,764.22 -509.47,764.22zm-636.85 -1528.43l-339.63 0 0 2759.64 467 0 0 -976.48c796.36,421.38 1485.96,26.73 1485.96,-934.05 0,-378.75 -430.25,-1150.04 -1309.95,-791.7 -387.07,157.66 -4.26,-57.41 -303.38,-57.41z"/>
   <path class="fil11" d="M60820.09 38059.26l0 2674.75 467.01 0c0,-1495.83 -118.95,-1485.95 551.95,-1485.95 311.65,0 254.73,916 254.73,1146.32 0,406.68 -181.22,339.63 424.58,339.63 75.92,-557.21 46.44,-489.41 42.48,-1061.42 -2.86,-408.59 -261.46,-891.59 -806.69,-891.59 -234.43,0 -283.97,84.75 -467.05,127.37l0 -1061.37c-160.77,37.45 -467.01,41.47 -467.01,212.26z"/>
   <path class="fil11" d="M63749.58 39205.58l212.32 0c153.39,0 303.53,184.79 339.63,339.64l-934.05 0c43.72,-187.6 153.74,-339.64 382.1,-339.64zm-891.58 509.48c0,1441.28 1803.73,1137.35 1765.12,685.94 -34.1,-398.46 -347.01,-49.09 -831.06,-49.09 -233.18,0 -405.23,-149.64 -424.58,-382.11 596.63,0 1443.53,164.83 1443.53,-254.74 0,-1214.82 -1953.01,-1239.74 -1953.01,0z"/>
   <path class="fil2" d="M40950.45 34408.03c0,-267.88 154.15,-498.85 382.11,-551.95l476.53 714.67c-153.19,40.32 -858.64,268.03 -858.64,-162.72zm509.48 -1018.96c0,-1263.26 610.87,-409.03 0,0zm-849.11 1061.43c0,299.37 415.25,551.9 721.74,551.9 323.44,0 461.29,-177.81 645.42,-251.23 254.64,-101.44 354.08,166.33 670.74,166.33 281.82,0 444.69,-71.1 467.01,-339.63l-722.6 -21.01c5.07,-209.56 169.24,-537.46 272.14,-641.76 152.84,-154.9 611.72,-98.74 535.4,-271.29 -83.39,-206.6 -512.53,-16.34 -721.79,-42.47l-465.8 -52.1c-1.6,242 -44.13,340.79 338.43,349.31l-183.13 461.49c-314.61,-21.76 -493.63,-428.34 -623.51,-673.75 249.53,-372.68 467.01,-257.7 467.01,-849.16 0,-288.09 -203.59,-339.64 -424.58,-339.64 -556.82,0 -256.65,599.79 -395.3,1048.19 -67.19,217.23 -581.18,334.47 -581.18,904.82z"/>
   <path class="fil8" d="M15561.51 38144.16l0 3311.6c0,181.17 162.92,127.36 551.95,127.36 97.79,0 127.37,-29.53 127.37,-127.36l0 -3311.6c0,-181.13 -162.97,-127.37 -551.95,-127.37 -97.83,0 -127.37,29.58 -127.37,127.37z"/>
   <polygon class="fil8" points="16792.73,41583.12 17429.58,41583.12 17429.58,38016.79 16792.73,38016.79 "/>
   <path class="fil2" d="M2017.91 17552.87c0,594.98 415.05,717.03 1069.5,645.58 657.1,-71.71 1265.56,124.06 1265.56,-518.21 0,-730.31 -867.16,-551.95 -1783.16,-551.95 -279.31,0 -551.9,148.84 -551.9,424.58z"/>
   <path class="fil3" d="M57890.6 40309.43c-324.09,0 -636.84,-6.52 -636.84,-594.37 0,-673.35 1103.84,-611.47 1103.84,42.47 0,286.53 -178.11,551.9 -467,551.9zm-1103.85 -636.84c0,1562.48 2037.91,1357.73 2037.91,84.94 0,-1278.3 -2037.91,-1258.54 -2037.91,-84.94z"/>
   <path class="fil2" d="M10806.38 17467.93c0,869.62 491.02,721.79 1655.8,721.79 445.09,0 679.32,-194.66 679.32,-594.42 0,-770.59 -2335.12,-568.85 -2335.12,-127.37z"/>
   <path class="fil2" d="M3503.86 21204.11c0,1555.61 1953.01,-424.58 1953.01,-806.69l0 -169.84c0,-591.67 -791.24,-422.93 -1091.21,-72.21 -175.86,205.59 -861.8,808.09 -861.8,1048.74z"/>
   <path class="fil2" d="M9702.53 20270.05c0,491.98 1197.62,1528.43 1570.85,1528.43 234.03,0 427.74,-360.55 400.76,-573.91 -32.44,-256.9 -262,-456.43 -411.24,-604.36 -342.04,-338.98 -610.17,-817.16 -1263.21,-817.16 -94.27,0 -297.16,304.08 -297.16,467z"/>
   <path class="fil2" d="M3503.86 14071.43c0,478.69 1135.34,1528.43 1485.96,1528.43 291.6,0 467.05,-209 467.05,-509.47 0,-400.06 -1149.38,-1485.96 -1443.53,-1485.96 -256.04,0 -509.48,214.47 -509.48,467z"/>
   <path class="fil2" d="M35558.52 34875.03c517.7,-43.07 596.33,-877.34 1061.38,-1188.74l161.27 1069.55c634.69,-101.45 557.01,-959.99 1027.52,-1069.55 0,1389.52 636.85,1305.58 636.85,976.48 0,-164.48 -107.51,-68.4 -205.04,-261.96 -175.96,-349.01 46.28,-1096.63 -474.28,-1096.63 -276.15,0 -548.34,775.85 -764.21,934.01 -103,-442.24 85.54,-934.01 -382.11,-934.01 -269.83,0 -580.78,782.77 -806.64,934.01 31.44,-377.9 355.58,-1061.38 -169.84,-1061.38 -34.85,418.76 -305.44,1238.69 -84.9,1698.22z"/>
   <path class="fil2" d="M66476.14 34487.96c18.85,100.49 90.11,328.9 118.04,387.07 606.11,-141.21 651.09,-1079.18 1061.42,-1188.74 6.57,295.9 -0.3,950.85 254.74,1018.9 339.04,197.37 477.69,-912.6 934.01,-1018.9 0,419.56 77.73,1188.74 424.58,1188.74 438.82,0 -21.56,-445.49 -62.83,-701.38 -63.44,-393.34 -13.09,-869.47 -361.75,-869.47 -477.33,0 -513.19,844.35 -849.11,934.01 0,-577.23 27.58,-618.3 -212.27,-976.48 -722.74,346.75 -554.35,698.32 -934.05,976.48 7.37,-330.26 339.38,-1034.15 -169.59,-1110.17l-203.19 1359.94z"/>
   <path class="fil2" d="M52559.9 34361.79c23.62,239.3 9.48,306.69 108.57,513.24 472.56,-110.07 531.24,-585.45 800.01,-941.63 499.45,-661.87 142.97,320.38 473.68,814.26 571,-47.49 459.58,-940.97 976.48,-1061.37 0,419.56 77.72,1188.74 424.58,1188.74 438.82,0 -21.56,-445.49 -62.83,-701.38 -63.44,-393.34 -13.09,-869.47 -361.75,-869.47 -481.8,0 -517.45,845.45 -849.11,934.01 0,-577.23 27.58,-618.3 -212.27,-976.48 -741.25,355.63 -533.29,708.1 -934.06,976.48 11.14,-500.55 340.79,-856.14 -127.37,-1103.85l-235.93 1227.45z"/>
   <path class="fil2" d="M9702.53 15132.86c0,219.99 262.71,467 467,467 269.84,0 1485.96,-968.35 1485.96,-1528.43 0,-233.87 -150.89,-424.58 -424.53,-424.58 -468.56,0 -1528.43,1075.82 -1528.43,1486.01z"/>
   <path class="fil2" d="M58909.55 34110.82c0,398.95 -55.51,597.58 339.64,806.68 -99.39,676.82 -31.49,362.46 202.79,448.91 180.67,66.69 115.63,199.78 -75.42,187.94l-381.31 -47.54c-16.54,194.82 -67.99,344.7 253.94,344.7 334.52,0 594.42,-131.68 594.42,-467 0,-322.19 -164.78,-158.91 -297.21,-339.64 466.15,-38.81 1067.14,-237.84 1103.85,-679.31 -309.35,72.1 -1658.21,911.94 -1409.84,-301.88 90.32,-441.13 703.04,-1353.92 1240.05,-1353.92 192.36,0 84.89,287.53 84.89,551.95 558.12,130.02 481.65,-806.69 0,-806.69 -887.52,0 -1655.8,1107.71 -1655.8,1655.8z"/>
   <path class="fil2" d="M47531.23 34492.92c37.7,-452.96 448.7,-1018.95 934.05,-1018.95 114.23,490.32 -393.89,1018.95 -934.05,1018.95zm-297.22 -84.89c0,983.6 1140.11,-38.31 1146.33,-42.47 -202.24,868.06 -54.46,1146.32 -679.27,1146.32 -184.99,0 -560.78,-249.78 -764.22,-297.21 0,606.86 1365.11,1176.26 1654.25,-256.25 52.55,-260.35 61.63,-500 99.34,-792.24 67.14,-520.41 427.79,-989.37 -225.16,-989.37 -510.68,0 -1231.27,720.54 -1231.27,1231.22z"/>
   <path class="fil12" d="M48168.07 39672.59c0,1097.78 -97.88,1146.32 297.21,1146.32 146.38,0 129.98,-77.73 127.37,-254.74l-23.77 -806.14c448.75,-0.5 490.78,51.5 490.78,466.51 0,157.05 -117.75,594.37 42.47,594.37 447.55,0 339.63,-114.18 339.63,-1061.38l382.11 42.43c0,503.41 -174,1018.95 297.21,1018.95 202.74,0 127.37,-284.22 127.37,-806.64 0,-944.23 -795.4,-551.95 -976.53,-551.95 -151.04,0 -237.44,-84.89 -339.63,-84.89 -244.61,0 -764.22,71.8 -764.22,297.16z"/>
   <path class="fil2" d="M7155.15 12500.53l0 1698.27c0,282.52 934,777.61 934,-551.95 0,-363.8 51.8,-1485.95 -382.1,-1485.95 -279.86,0 -551.9,113.27 -551.9,339.63z"/>
   <path class="fil12" d="M42563.83 40436.8l-42.48 -1018.95c525.08,0 764.22,-67.6 764.22,594.42 0,331.16 -381.61,424.53 -721.74,424.53zm-467.06 -1316.11l0 1570.85c0,165.08 108.92,127.37 382.11,127.37 757.35,0 1273.74,-227.56 1273.74,-976.48 0,-879.95 -970.01,-849.11 -1528.48,-849.11 -97.78,0 -127.37,29.53 -127.37,127.37z"/>
   <path class="fil2" d="M7070.2 22307.96c0,1358.99 934.06,967.5 934.06,551.95l0 -1570.91c0,-173.7 -124.51,-382.1 -382.11,-382.1 -624.36,0 -551.95,766.07 -551.95,1401.06z"/>
   <path class="fil12" d="M38190.8 39757.53c0,1224.15 -118.34,1061.38 424.58,1061.38 0,-1229.26 -88,-1061.38 382.11,-1061.38 132.23,567.7 84.9,362.91 84.9,1061.38 592.26,0 339.63,-92.57 339.63,-806.64 0,-159.91 27.98,-80.28 42.47,-254.74 881.36,0 76.98,1061.38 509.48,1061.38l297.21 0c0,-701.78 153.05,-1443.48 -509.47,-1443.48 -221.6,0 -245.67,84.89 -424.59,84.89 -262.76,0 -1146.32,-226.15 -1146.32,297.21z"/>
   <path class="fil12" d="M35516.05 40436.8l0 -1018.95 382.11 0c205.34,0 339.63,134.29 339.63,339.68l0 339.64c0,249.02 -450.55,339.63 -721.74,339.63zm-424.58 382.11c936.41,0 1613.38,-5.92 1613.38,-1018.95 0,-869.77 -1022.97,-806.64 -1613.38,-806.64l0 1825.59z"/>
   <path class="fil11" d="M59376.56 38441.37l0 382.11 -382.11 0 0 424.58 382.11 0c0,942.33 -110.87,1528.43 764.21,1528.43 403.67,0 339.69,-129.18 339.69,-467.06 -730.97,0 -636.85,147.58 -636.85,-1061.37 737.64,0 636.85,89.41 636.85,-424.58l-636.85 0 0 -594.38c-134.14,11.14 -467.05,69.81 -467.05,212.27z"/>
   <path class="fil8" d="M14372.72 39163.11l0 2420.01 636.84 0c79.98,-343.19 79.98,-2204.18 0,-2547.38 -198.37,0 -636.84,-79.98 -636.84,127.37z"/>
   <path class="fil2" d="M43497.88 33261.71c0,471.21 443.39,566.49 929.45,726.3 153.59,50.5 270.53,134.24 386.67,165.28 -13.69,613.98 -960.69,511.43 -1357.84,461.94 -28.78,122.2 -167.03,387.17 381.36,387.17 731.97,0 2159.21,-826.19 674.1,-1310.95 -329.2,-107.46 -539.76,-123.26 -716.57,-387.27 95.57,-410.19 573.31,-467.05 934.05,-467.05 257.15,0 217.93,132.03 297.21,297.21 496.24,-262.56 32.55,-594.38 -212.31,-594.38 -559.92,0 -1316.12,175.11 -1316.12,721.75z"/>
   <path class="fil2" d="M38955.02 34535.4c0,-507.52 343.64,-1103.85 806.69,-1103.85 0,358.44 29.68,489.57 -285.58,818.27 -167.44,174.61 -209.66,285.58 -521.11,285.58zm-339.64 -42.48c0,155.05 176.41,382.11 254.74,382.11 521.01,0 651.49,-391.13 891.59,-551.9 0,810.25 467,616.34 467,424.53 0,-150.38 -204.09,-144.57 -169.84,-636.84l94.77 -677.72c-2,-49.79 -393.04,-314.26 -469.91,-314.81 -401.82,-2.91 -1068.35,821.43 -1068.35,1374.63z"/>
   <path class="fil12" d="M45365.95 40691.54c0,130.73 58.82,127.37 169.84,127.37 307.69,0 254.74,-174.31 254.74,-467 175.21,117.34 265.47,292.9 382.11,467l467 0c-68.15,-292.45 -365.51,-506.72 -509.48,-721.74 71.16,-266.52 391.84,-397.7 467.01,-679.32l-467.01 0 -321.38 438.42c-64.33,-815.31 182.53,-862.95 -442.83,-862.95l0 1698.22z"/>
   <path class="fil2" d="M56149.91 34535.4c-406.68,0 273.19,-1103.85 594.37,-1103.85l127.37 0 0 254.74c0,281.61 -443.29,849.11 -721.74,849.11zm-424.58 -127.37c0,216.58 65.23,467 297.21,467 450.45,0 557.86,-431.7 849.11,-509.47 0,584.29 68.75,559.82 467,467 -35.35,-424.88 -288.43,-150.84 -157.61,-964.3 20.61,-127.92 115.44,-355.53 34.76,-480.19 -18.16,-28.03 -321.84,-251.13 -374.49,-268.73 -405.22,-135.34 -1115.98,859.34 -1115.98,1288.69z"/>
   <path class="fil2" d="M33817.78 33304.18c0,330.66 64.99,297.16 382.1,297.16 -77.52,439.12 -376.54,1358.59 254.74,1358.59 313.56,0 653.3,-281.77 679.32,-594.37 -396.1,32.94 -221.34,254.73 -721.74,254.73 -105.46,-440.27 68.25,-975.07 212.27,-1061.37 287.68,-138.05 686.08,131.63 721.74,-297.21 -381.36,-88.86 -265.82,-42.48 -721.74,-42.48 45.23,-94.22 278.2,-636.84 0,-636.84 -195.97,0 -215.93,314.06 -268.18,496.08 -49.34,172.1 -16.3,152.15 -195.57,186.55 -81.48,15.59 -261.21,37.3 -342.94,39.16z"/>
   <path class="fil2" d="M64513.8 34365.56c0,258.04 70.3,551.94 339.68,551.94 323.24,0 560.88,-458.22 764.22,-594.37 0,413.8 61.43,594.37 339.63,594.37 162.32,0 15.45,13.04 127.37,-42.47 -41.57,-499.5 -302.07,308.5 -66.59,-1525.82l-145.67 -2.61c-274.4,0 -293.25,1171.7 -1061.43,1188.8 0,-978.44 286.83,-814.01 169.84,-1316.17 -352.52,0 -303.63,123.56 -358.24,448.45 -43.27,257.4 -108.81,420.87 -108.81,697.88z"/>
   <path class="fil2" d="M46002.8 34620.29c-434.51,0 -198.03,-1146.32 424.58,-1146.32 413.34,0 286.83,1146.32 -424.58,1146.32zm-551.95 -212.26c0,260.3 214.77,551.9 467.05,551.9 549.64,0 1061.38,-599.44 1061.38,-1146.27 0,-501.01 -509.53,-843.7 -942.64,-560.73 -299.97,196.02 -585.79,678.07 -585.79,1155.1z"/>
   <path class="fil2" d="M51394.77 33261.71l-465.85 52.1c-2.86,283.27 13.19,287.53 380.91,287.53 -44.98,237.44 -368.22,1358.59 169.84,1358.59 360.95,0 721.74,-216.33 721.74,-594.37 -378.55,8.42 -171.09,254.73 -594.37,254.73 -284.98,0 -35.6,-837.52 -1.46,-935.51 63.94,-183.43 101.05,-118.49 358.84,-150.63 168.04,-20.92 306.59,-56.97 449.31,-60.18l0 -254.74 -679.32 0c82.84,-172.6 279.31,-636.84 -42.48,-636.84 -179.16,0 -256.29,503.76 -297.16,679.32z"/>
   <path class="fil2" d="M49102.13 34323.13c0,239.2 21.26,594.37 339.63,594.37 317.92,0 550.6,-451.35 764.22,-594.37 0,678.37 132.13,618.7 424.58,594.37 -6.87,-307.49 -193.86,-424.88 -160.52,-751.72 26.93,-264.42 118.05,-497.5 118.05,-819.18 -605.76,0 -346.96,1188.8 -1188.8,1188.8 0,-949.96 489.67,-1316.17 -84.9,-1316.17 -70.6,303.03 -212.26,761.21 -212.26,1103.9z"/>
   <path class="fil2" d="M61711.68 34620.29c-195.92,0 -297.21,19.51 -297.21,-297.16 0,-383.06 224.09,-849.16 636.89,-849.16 437.57,0 232.93,1146.32 -339.68,1146.32zm-594.38 -467c0,286.68 1.36,806.64 467.01,806.64 440.27,0 1018.95,-502.86 1018.95,-1188.75 0,-1060.22 -1485.96,-555.01 -1485.96,382.11z"/>
   <path class="fil2" d="M70967.2 33983.45c23.02,-276.9 258.85,-587.86 551.95,-594.38 -7.07,315.82 -336.12,480.2 -551.95,594.38zm-382.1 254.74c0,298.31 47.93,679.31 509.47,679.31 401.17,0 882.31,-306.33 891.59,-721.74 -412.35,96.03 -185.64,382.11 -934.06,382.11 -151.04,0 -222.19,-187.14 -97.48,-304.18 320.38,-300.62 1007.97,-329.36 819.27,-1139.35 -838.93,-195.47 -1188.79,743.9 -1188.79,1103.85z"/>
   <path class="fil12" d="M44219.63 40139.64c0,-521.26 594.37,-619.14 594.37,0 0,469.51 -594.37,424.83 -594.37,0zm976.48 0c0,-1103.45 -1124.51,-799.67 -1287.59,-438.27 -102.69,227.51 -59.32,716.83 62.64,899.01 307.94,460.08 1224.95,282.67 1224.95,-460.74z"/>
   <path class="fil2" d="M62900.47 33389.07c0,268.73 637.4,140.61 890.73,118.85 -117.74,232.62 -404.22,535.85 -583.54,740.24 -296.61,338.08 -598.08,469.97 -604.4,754.24 420.07,0 250.78,-0.8 535.9,-143.41 734.28,-367.42 1204.85,226.15 1204.85,-153.8 0,-517.65 -638.3,-169.79 -1018.96,-169.79 78.43,-293.85 898.66,-848.51 934.01,-1273.69 -425.83,-99.24 -553.75,52.3 -934.01,0l-423.52 -50.3 -1.06 177.66z"/>
   <path class="fil12" d="M37426.59 39715.06c192.91,0 239.69,73.91 254.74,254.74l-424.58 0c3.46,-154.05 18.65,-254.74 169.84,-254.74zm-594.38 212.27c0,497.79 -47.58,891.58 764.22,891.58 187.29,0 302.43,-62.73 424.53,-127.37l-90.81 -295.2c-547.89,124.91 -518.1,240.34 -715.83,-171.8l891.59 0c0,-1256.65 -1273.7,-905.58 -1273.7,-297.21z"/>
   <path class="fil12" d="M46767.01 40394.38c0,619.04 1231.22,597.98 1231.22,-42.47l0 -934.06 -382.11 0 -42.42 1018.95c-495.04,115.34 -424.58,32.05 -424.58,-1018.95l-382.11 0 0 976.53z"/>
   <path class="fil11" d="M65575.22 39035.74l-43.97 -211.86 -423.03 -0.4 0 1910.53 467 0c0,-1021.26 -170.04,-1485.95 636.85,-1485.95l0 -467.06c-315.81,7.07 -446.14,127.07 -636.85,254.74z"/>
   <path class="fil3" d="M56022.54 39035.74c-104.26,-225.3 187.49,-212.26 -467.06,-212.26l0 1910.53 467.06 0c-121.2,-1666.03 -7.83,-1219.13 636.84,-1528.43l0 -424.58c-315.86,7.07 -446.19,127.07 -636.84,254.74z"/>
   <path class="fil2" d="M72325.79 34662.77c0,172.8 67.05,228.36 169.84,297.16 255.74,-68.25 262.46,-537.86 381.81,-806.94 400.71,-903.42 734.48,-568.25 934.36,-551.65 94.02,-403.72 -77.98,-424.53 -297.21,-424.53 -466.05,0 -660.67,625.86 -891.59,891.58 0,-530.33 256.5,-529.58 42.48,-934.05 -316.27,167.33 -293.51,173.25 -296.41,637.64 -1.81,282.12 -43.28,544.28 -43.28,890.79z"/>
   <path class="fil2" d="M31694.97 33686.29c0,593.62 683.03,383.71 721.75,849.11 -207.86,48.44 -123.01,85.8 -422.88,86.55 -241.35,0.65 -276.35,-4.01 -468.71,40.82 0,269.03 50.15,297.16 297.21,297.16 358.34,0 934.01,-184.54 934.01,-594.37 0,-334.93 -764.21,-399.16 -764.21,-679.27 0,-143.87 350.31,-339.69 509.47,-339.69 193.71,0 254.74,142.67 254.74,-169.79 0,-355.33 -1061.38,44.68 -1061.38,509.48z"/>
   <path class="fil2" d="M69778.41 34577.87c0,538.91 323.49,502.91 343.74,174.81 17.35,-280.62 -23.76,-608.12 -1.4,-893.89 58.72,-750.43 528.23,-1658.51 167.13,-1658.51 -342.24,0 -509.47,1874.73 -509.47,2377.59z"/>
   <path class="fil2" d="M30888.29 34917.5c485.85,-113.17 73.46,-227.2 307.84,-1432.85 147.33,-757.74 244.21,-585.75 31.79,-987.16 -350.11,234.48 -248.97,319.38 -363.15,1122.81 -40.32,283.77 -44.83,393.94 -62.53,702.53 -19.56,341.24 -99.99,316.87 86.05,594.67z"/>
   <path class="fil12" d="M41077.82 39502.8l0 1316.11c540.52,0 424.58,156.9 424.58,-1018.95l424.58 0 51.85 -380.66c-766.02,-2.8 -539.36,53.41 -901.01,83.5z"/>
   <path class="fil1" d="M68716.98 23496.75l0 169.79c0,575.52 891.59,497.8 891.59,-84.89l0 -84.9c0,-632.03 -891.59,-513.64 -891.59,0z"/>
   <path class="fil1" d="M61117.3 23496.75c0,878.1 891.59,687.34 891.59,0 0,-621.85 -891.59,-512.78 -891.59,0z"/>
   <path class="fil1" d="M39124.86 23411.81c0,259.95 26.28,679.32 382.11,679.32 515.54,0 685.23,-1018.96 84.89,-1018.96 -188.69,0 -467,172.1 -467,339.64z"/>
   <path class="fil1" d="M40780.66 23496.75c0,982.25 849.11,514.49 849.11,84.9 0,-775.7 -849.11,-536.91 -849.11,-84.9z"/>
   <path class="fil2" d="M73939.17 34577.87c0,135.39 -6.67,277.35 124.66,338.28 160.97,74.67 27.18,29.79 87.6,1.35 25.88,-10.73 162.82,39.82 138.65,-309.09 -55.61,-803.08 158.56,-850.12 158.56,-1346.7 -111.67,-26.03 -124.76,-38.62 -212.31,-84.9 -195.32,291.7 -297.16,1018.3 -297.16,1401.06z"/>
   <path class="fil2" d="M33053.56 34620.29c0,539.02 339.64,360.2 339.64,127.37 0,-236.28 -45.28,-176.51 -19.86,-399.2 15.9,-139.16 32.39,-331.62 49.64,-420.12 76.57,-391.84 203.19,-471.82 55.16,-751.53 -280.41,65.29 -290.34,293.95 -340.63,593.37 -45.54,270.63 -83.95,533.19 -83.95,850.11z"/>
   <path class="fil12" d="M40483.45 39545.22l0 1273.69 382.11 0 0 -1401.06 -254.74 0c-97.84,0 -127.37,29.58 -127.37,127.37z"/>
   <path class="fil8" d="M14330.24 38229.1c0,476.38 -28.48,424.53 551.95,424.53 222,0 169.85,-266.07 169.85,-509.47 0,-200.68 -329.56,-127.37 -679.32,-127.37 -22.17,95.22 -42.48,97.63 -42.48,212.31z"/>
   <path class="fil10" d="M5889.53 37507.31l153.84 297.91c180.28,-36.65 297.47,-121.85 516.4,-119.74 206.1,2 338.33,88.7 514.54,128.42l133.29 -306.59c-452.31,-209.86 -861.9,-245.81 -1318.07,0z"/>
   <path class="fil2" d="M47913.33 32412.59c0,323.14 344.95,551.9 551.95,551.9 138.55,0 594.38,-203.39 594.38,-467 0,-344.65 -181.28,169.84 -679.32,169.84 -238.29,0 -160.57,-311.65 -424.53,-382.1 -29.14,51.75 -42.48,45.38 -42.48,127.36z"/>
   <path class="fil2" d="M74321.27 32370.12c0,206.25 4.52,257.05 84.9,424.58 264.82,-61.73 339.64,-186.69 339.64,-509.47 -69.61,-16.25 -42.48,25.72 -169.8,-84.95 -85.8,57.47 -168.99,112.37 -254.74,169.84z"/>
   <polygon class="fil13" points="40483.45,39332.95 40865.56,39332.95 40865.56,38993.32 40483.45,38993.32 "/>
   <path class="fil12" d="M46979.28 39163.11c0,99.39 70.45,169.84 169.84,169.84l169.84 0 0 -339.63 -339.68 0 0 169.79z"/>
   <path class="fil12" d="M47403.86 39205.58c0,183.84 339.63,183.84 339.63,0l0 -212.26 -339.63 0 0 212.26z"/>
   <path class="fil14" d="M6107.11 39841.28c43.02,-109.87 40.57,-109.77 -11.53,-207.3 -380.61,-29.24 -137.85,368.76 -43.53,424.02 174.71,102.45 180.77,3.36 181.93,2.86 55.46,-212.06 -10.13,-161.52 -126.87,-219.58z"/>
   <path class="fil9" d="M6871.42 40083.43c261.56,18.45 375.94,-155.05 307.3,-434.41 -291,-80.73 -193.01,75.97 -211.77,154.3 -34.45,143.66 -134.14,47.43 -95.53,280.11z"/>
   <path class="fil12" d="M44559.26 39163.11c0,102.5 117.24,281.92 341.69,86.95l40.42 -44.48c-26.03,-111.62 -38.61,-124.76 -84.9,-212.26 -111.22,0 -297.21,-22.02 -297.21,169.79z"/>
   <path class="fil2" d="M61584.31 32794.7l0 127.37c132.38,70 133.13,84.9 339.68,84.9 0,-197.42 30.49,-339.64 -212.31,-339.64 -97.84,0 -127.37,29.54 -127.37,127.37z"/>
   <path class="fil2" d="M62221.15 32667.33c0,298.02 -26.57,297.16 254.74,297.16 134.39,-253.98 84.6,-158.76 42.47,-339.63 -134.54,0 -201.93,5.47 -297.21,42.47z"/>
   <path class="fil12" d="M44177.15 39332.95l169.85 0c97.83,0 127.36,-29.53 127.36,-127.37l0 -212.26 -297.21 0 0 339.63z"/>
   <path class="fil2" d="M65575.22 32709.76c11.99,144.21 32.35,155.45 84.9,254.73 285.43,0 254.74,22.22 254.74,-339.63 -341.19,0 -111.77,17.5 -339.64,84.9z"/>
   <path class="fil2" d="M64980.85 32794.7l0 127.37c472.07,249.78 417.16,-254.74 127.37,-254.74 -97.83,0 -127.37,29.54 -127.37,127.37z"/>
   <path class="fil6" d="M6364.05 41228.75c157.46,116.94 216.73,76.47 377.5,25.72l-182.33 -149.63 -195.17 123.91z"/>
  </g>
 </g>
</svg>
