<?xml version="1.0" encoding="UTF-8"?>
<!DOCTYPE svg PUBLIC "-//W3C//DTD SVG 1.1//EN" "http://www.w3.org/Graphics/SVG/1.1/DTD/svg11.dtd">
<!-- Creator: CorelDRAW 2020 (64-Bit) -->
<svg xmlns="http://www.w3.org/2000/svg" xml:space="preserve" width="210mm" height="297mm" version="1.1" style="shape-rendering:geometricPrecision; text-rendering:geometricPrecision; image-rendering:optimizeQuality; fill-rule:evenodd; clip-rule:evenodd"
viewBox="0 0 21000 29700"
 xmlns:xlink="http://www.w3.org/1999/xlink"
 xmlns:xodm="http://www.corel.com/coreldraw/odm/2003">
 <defs>
  <style type="text/css">
   <![CDATA[
    .fil1 {fill:#00907D}
    .fil3 {fill:#2A2121}
    .fil0 {fill:#A9D2E0}
    .fil2 {fill:#F39611}
   ]]>
  </style>
 </defs>
 <g id="Katman_x0020_1">
  <metadata id="CorelCorpID_0Corel-Layer"/>
  <g id="_3047865574128">
   <path class="fil0" d="M5031.59 15117.37c-61,-32.28 -84.03,-76.2 -152.4,-76.2 -21.23,0 -67.73,18.58 -67.73,33.87 0,134.1 165.76,171.32 220.13,245.53l0 406.4 -283.55 -275.28c12.18,-145.81 15.07,-142.98 12.62,-283.52 -0.81,-46.69 -160.87,-134.72 -160.87,127 -25.71,-6.86 -228.6,-210.95 -228.6,-50.8 0,101.19 75.87,118.26 110.07,169.33 -258.84,0 -194.87,175.89 -118.53,169.34l245.28 -19.68c43.24,-1.19 283.22,249.36 305.05,290.61l-406.4 0 -192.94 -237.32c-33.96,0.72 -79.56,49.96 -107.11,71.76l92.47 154.54c-197.13,4.25 -190.11,20.85 -211.48,135.01l215.86 28.41c-22.49,42.5 -84.67,90.59 -84.67,143.93 0,45.84 31.87,57.87 70.54,95.32l208.86 -239.25 414.87 0c-40.99,61.21 -181.29,183.1 -243.05,248.65 -83.17,88.25 -200.64,-60.62 -375.02,56.15 2.41,108.07 77.29,118.53 186.27,118.53 -25.82,38.56 -118.53,102.92 -118.53,152.41 0,45.65 41.87,76.2 84.66,76.2 59.8,0 109.39,-89.74 152.4,-118.54 0,255.61 169.34,206.4 169.34,101.6 0,-264.56 -55.99,-221.71 74.13,-340.73 42.55,-38.92 157.03,-165.12 196.8,-175.74l2.49 406.41c-42.39,10.75 -222.62,138.91 -222.62,211.66 0,36.23 26.1,67.74 59.26,67.74 56.37,0 123.18,-59.43 160.87,-84.67 0,103.17 -8.05,203.2 93.13,203.2 88.41,0 84.13,-132.83 67.74,-203.2 80.28,42.48 203.2,167.64 203.2,-8.47 0,-58.72 -158.31,-156.2 -203.2,-186.26l0 -397.94c43.56,11.63 158.22,145.55 196.84,184.15 142.18,142.1 65.62,29.08 65.62,349.25 0,22.87 4.05,23.35 8.47,42.34 67.78,15.79 152.4,67.18 152.4,-160.87 49.83,33.36 95.47,110.07 177.8,110.07 33.17,0 59.27,-31.51 59.27,-67.74 0,-79.41 -87.15,-113.99 -118.54,-160.87l6.74 17.07 197.39 -77.93c-70.34,-178.18 -168.62,-83.07 -348.06,-83.07 -30,0 -264.12,-243.94 -287.87,-279.4 131.29,0 302.33,-38.84 411.66,11.68 99.9,46.16 91.31,199.99 257.21,199.99 8.65,-37.11 33.87,-49.95 33.87,-76.2 0,-60.12 -71.21,-85.06 -84.67,-135.47 141.55,0 203.2,8.15 203.2,-84.67 0,-82.48 -117.38,-84.66 -203.2,-84.66l92.7 -178.43c-115.22,-54.77 -113.83,-39.56 -179.58,32.27 -28.87,31.54 -105.91,124.12 -116.32,163.09l-406.4 0c10.26,-38.42 238.57,-289.61 262.47,-287.87l304.61 19.55c15.14,-59.44 25.59,3.85 25.59,-87.28 0,-93.05 -122,-57.89 -177.8,-84.67 33.1,-49.44 110.06,-84.59 110.06,-160.86 0,-53.33 -46.66,-59.27 -84.66,-59.27 -63.42,0 -97.5,78.97 -143.94,110.07 0,-250.1 -210.46,-298.63 -145.51,70.68 17.96,102.16 -42.02,121.08 -106.37,185.43 -41.14,41.14 -121.92,131.26 -162.98,158.75l-7.79 -397.95c64.47,-43.71 219.45,-143.58 219.45,-228.58 0,-27.51 -52.31,-59.27 -76.2,-59.27 -73.22,0 -88.18,71.68 -143.93,84.67 10.81,-86.73 39.77,-203.2 -110.07,-203.2 -48.19,0 -50.8,140.47 -50.8,203.2z"/>
   <path class="fil1" d="M7724 14973.44c0,81.59 21.09,42.33 118.53,42.33 57.34,0 67.73,41.73 67.73,93.13 0,295.18 -18.69,586.35 -73.84,857.5 -15.14,74.45 -66.11,195.36 -70.09,243.17 154.8,0 152.5,-8.98 171.32,-150.41 32.51,-244.16 40.35,-665.41 40.35,-924.86l375.94 1082.57 30.46 1.17 453.48 -1059.95c3.72,202.68 -108.07,1059.95 96.85,1059.95 136.56,0 167.44,-52.77 245.53,-59.27 0,-139.76 -220.13,103.82 -220.13,-203.2 0,-340.24 20.5,-675.12 35.32,-1016.36 -13.55,-4.43 -48,-16.57 -69.19,-16.57 -98.26,0 -229.38,391.01 -270.92,482.61 -55.05,121.37 -201.48,416.94 -228.61,533.39 -25.59,-18.75 -207.03,-566.42 -233.84,-646.7 -120.57,-361.04 -63.37,-412.98 -468.89,-318.5z"/>
   <path class="fil2" d="M3084.26 13567.97l42.33 0c172.79,0 313.27,174.54 313.27,347.13 0,281.13 -368.61,441.15 -586.63,231.03 -214.19,-206.42 -75.4,-578.16 231.03,-578.16zm-533.4 304.8l0 59.27c0,266.86 245.04,516.46 541.86,516.46 274.77,0 550.34,-231.31 550.34,-499.53l0 -93.14c0,-261.35 -263.84,-491.06 -550.34,-491.06 -281.09,0 -541.86,236.17 -541.86,508z"/>
   <path class="fil1" d="M8088.06 14245.3c-21.96,32.79 -101.6,114.8 -101.6,160.87 0,80.1 143.94,110.05 143.94,169.33 0,114.78 -135.48,175.65 -110.07,228.6 23.77,23.44 245.53,-158.5 245.53,-313.26 0,-43.9 -119.09,-114.08 -152.4,-152.4 14.89,-178.87 217.83,-11.85 493.39,-285.61 23.52,-23.37 101.98,-79.16 37.06,-97.4 -51.85,-14.56 -180.63,171.34 -403.45,171.34l-76.2 0c-269.74,0 -448.73,-341.41 -448.73,-626.54l0 -84.66c0,-300.84 171.88,-643.47 457.2,-643.47l67.73 0c172.06,0 347.14,116.25 347.14,287.87l0 59.26 59.26 0c94.54,-405.76 -115.14,-440.26 -423.33,-440.26 -387.19,0 -656.32,362.89 -692.21,721.73 -48.98,489.75 166.26,753.63 556.74,844.6z"/>
   <path class="fil3" d="M6580.99 12848.3l0 4809.07c0,29.19 6.27,32.79 8.47,59.27l93.13 0 0 -4876.81c0,-44.47 -101.6,-31.33 -101.6,8.47z"/>
   <path class="fil3" d="M2720.19 16869.97l67.21 43.06 2927.37 -3933.38c-108.14,-32.99 -20.78,-134.09 -218.69,129.93l-556.44 747.44c-247.01,329.53 -508.37,663.83 -744.51,999.62 -159.11,226.23 -1473.03,1927.48 -1474.94,2013.33z"/>
   <path class="fil1" d="M13327.52 15734.03l-5.64 11.29 5.64 -11.29zm-455.79 179.21l0 -76.2c0,-171.39 121.12,-372.54 287.87,-372.54 143.22,0 66.32,1.4 169.33,25.4 0,348.3 -457.2,888.41 -457.2,423.34zm465.67 -474.14c-77.76,-18.11 -50.71,-42.33 -186.27,-42.33 -281,0 -513.35,421.37 -389.57,702.84 82.05,186.56 227.61,134.06 341.13,19.19 131.87,-133.44 131.23,-241.88 217.78,-366.43 -7.12,86.46 -46.33,465.67 67.73,465.67 91.23,0 242.97,-56.02 237.07,-127 -149.52,34.83 -194.74,85.42 -194.74,-203.2 0,-214.26 17.02,-436.71 37.62,-639.72 10.73,-105.78 21.81,-199.44 34.8,-303.87 17.25,-138.65 75.26,-241.75 -55.48,-241.75 -101.72,0 -89.83,233.51 -92.84,330.5 -4.26,137.06 -17.23,265.8 -17.23,406.1z"/>
   <path class="fil1" d="M15792.74 16192.64c17.32,-208.16 166.9,-668.87 381,-668.87 102.02,0 41.37,149.2 -15.6,196.07 -80.74,66.42 -128.4,72.54 -221.47,117.2 5.48,65.83 197.44,381 287.87,381 63.88,0 154.69,-38.8 199,-64.77 153.38,-89.91 -68.71,-28.37 -88.94,-28.37 -93.95,0 -236.94,-223.13 -254,-296.33 93.6,-21.8 270.94,-171.53 270.94,-287.87l0 -33.86c0,-195.47 -254.74,-95.97 -340.94,-2.27 -126.38,137.36 -128.1,257.8 -209.4,374.8 0,-197.94 26.61,-428.41 44.65,-624.22 8.97,-97.34 21.07,-207.83 30.81,-307.86 15.29,-157.06 71.78,-244.79 -66.99,-244.79 -106.79,0 -69.18,266.03 -80,368.74 -14.33,135.98 -17.72,289.76 -21.77,426.97 -3.98,134.91 -24.31,287.9 -25.31,423.41 -2.68,360.52 -60.73,285.24 110.15,271.02z"/>
   <path class="fil1" d="M10187.8 16209.57l127.02 -16.76c42.03,-180.65 68.8,-465.42 240.53,-623.29 41.48,-38.14 170.97,-99.39 165.85,81.25 -4.32,152.17 -20.25,252.15 -16.94,414.87 4.06,198.97 115.63,173.92 272.16,93.8 157.37,-80.54 6.61,-43 -102.82,-43 -55.06,0 -42.34,-116.24 -42.34,-169.34 0,-189.3 102.98,-631 -182.85,-547.85 -224.18,65.22 -236.72,340.67 -333.61,480.12 4.46,-200.47 52.1,-687.18 77.45,-913.15 18.33,-163.46 70.63,-263.72 -60.52,-263.72 -102.65,0 -78.16,229.42 -83.82,322.58 -8.39,138 -12.09,259 -18.21,396.66 -11.32,254.76 -41.9,529.02 -41.9,787.83z"/>
   <path class="fil1" d="M11381.6 13525.63l0 42.34c0,257.08 482.6,237.03 482.6,474.13 0,74.19 -94.73,118.54 -186.27,118.54 -173.98,0 -172.09,-94.62 -220.13,-194.74 -87.04,20.28 -127,25.15 -127,110.07 0,94.64 168.76,169.33 270.93,169.33 -222.33,332.02 42.34,176.74 42.34,338.67 0,104.7 -132.09,172.51 -110.07,220.13 55.85,26.8 175.43,-138.1 206.72,-182.75 95.56,-136.34 24.99,-169.57 -69.67,-242.67 -145,-111.97 91.78,-141.59 150.86,-167.21 107.37,-46.55 177.76,-125.71 177.76,-262.5 0,-153.19 -219.84,-237.52 -333.1,-293.44 -226.59,-111.86 -194.36,-307.7 -5.57,-307.7 219.57,0 192.96,76.39 169.33,177.8 54.57,26.19 169.34,17.69 169.34,-101.6 0,-237.55 -618.07,-215.49 -618.07,101.6z"/>
   <path class="fil1" d="M9332.66 13965.9l0 0zm-270.93 143.94c-87.08,0 -101.6,-56.06 -101.6,-135.47 0,-160.91 206.27,-211.67 372.53,-211.67 0,136.23 -143.05,347.14 -270.93,347.14zm270.93 -143.94c0,455.49 442.25,217.91 393.29,166.61 -56.61,-59.32 -298.89,261.63 -229.34,-468.33 27.69,-290.54 -60.41,-464.46 -367.34,-384.28 -395.86,103.42 -295.99,429.38 -92.94,321.93 3.06,-6.5 -142.63,-303.03 166.64,-251.77 172.87,28.65 142.09,177.07 138.16,353.37 -254.4,0 -624.09,118.12 -541.75,397.62 33.87,114.95 167.61,188.75 302.25,116.42 144.5,-77.63 171.75,-208.13 231.03,-251.57z"/>
   <path class="fil1" d="M10932.86 13957.44l0 0zm-270.93 152.4c-104,0 -101.6,-80.08 -101.6,-143.94 0,-153.84 212.74,-203.2 372.53,-203.2 0,134.95 -144.43,347.14 -270.93,347.14zm270.93 -152.4c0,422.48 415.99,274.68 389.47,160.86 -259.78,60.53 -239.75,5 -237.05,-270.91 1.79,-183.1 59.36,-404.71 -48.59,-518.72 -107.67,-113.71 -343.7,-56.88 -451.89,9.77 -225.44,138.86 -115.54,351.9 51.73,263.39 4.66,-9.88 -149.16,-292.94 159.1,-252.87 184.16,23.94 145.7,177.34 145.7,354.47 -255,0 -624.54,116.6 -541.68,397.55 35.78,121.31 172.49,189.8 307.63,113.47 141.72,-80.05 140.53,-159.16 225.58,-257.01z"/>
   <path class="fil1" d="M9874.53 13313.97l-187.61 59.57 9.96 26.29 169.18 -9.66c-8.86,143.43 -33.94,383.82 -25.4,516.46 11.8,183.2 26.4,338.67 211.67,338.67 98.62,0 308.43,-72.6 287.87,-160.86 -193.78,16.12 -359.39,176.7 -347.14,-279.41l22.32 -415.06 248.62 8.66c59.88,0 61.56,-38.46 50.8,-84.66 -171.15,14.09 -111.66,10.7 -287.74,-1.51l71.96 -515.57c-165.2,-13.48 -149.18,-19.23 -178.4,173.7 -16.05,105.97 -23.86,247.94 -46.09,343.38z"/>
   <path class="fil1" d="M11974.27 15870.9c5.56,-69.24 35.88,-361.35 25.4,-406.4 0,-137.14 -230.37,-13.95 -296.34,-8.46 0,121.1 176.31,-59.5 169.34,93.13l-26.06 660.37 127.68 -16.73c-0.03,-194.83 102.57,-504.9 243.29,-629.05 67.06,-59.17 163.09,-39.93 163.09,53.14 0,133.59 -82.03,601.14 59.26,601.14 64.56,0 260.63,-69.58 237.07,-110.07 -17.75,-37.01 -3.72,8.47 -143.93,8.47 -38.01,0 -53.64,-63.02 -50.8,-101.6l28.44 -431.58c11.2,-194.24 -187.95,-244.81 -323.02,-108.53 -144.89,146.2 -130.31,276.57 -213.42,396.17z"/>
   <path class="fil1" d="M9298.8 15489.9c50.38,216.26 -138.71,781.53 170.73,729.67 234.23,-39.25 241.78,-341.96 328.8,-467.2 -8.81,84.3 -20.84,149.23 -16.93,228.6 18.5,375.39 354.98,212.52 338.66,135.47 -41.51,-17.15 -221.16,140.52 -211.66,-262.47l21.17 -448.97c-157.2,0.24 -124.64,-0.06 -140.79,134.62 -9.14,76.28 -32.27,154.55 -53.35,226.05 -30.88,104.77 -123.35,325.37 -241.9,325.37 -141.31,0 -50.8,-422.8 -50.8,-618.07 0,-30.92 -35.18,-76.2 -50.8,-76.2 -42.57,0 -198.91,39.03 -226.86,54.64 -120.28,67.2 100.85,35.76 133.73,38.49z"/>
   <path class="fil1" d="M14827.54 15896.3c0,86.94 -21.44,321.74 76.2,321.74 91.22,0 242.97,-56.02 237.06,-127 -79.34,18.48 -33.52,25.4 -143.93,25.4 -93.97,0 -30.11,-634.67 -25.41,-736.61l53.02 -556.91c12.6,-101.1 40.51,-120.42 -78.41,-120.42 -104.71,0 -92.59,444.39 -93.15,558.79 -1.01,209.58 -25.38,413.5 -25.38,635.01z"/>
   <path class="fil1" d="M11203.8 15752.37c10.33,-124.18 80.31,-287.87 211.67,-287.87 114.56,0 148.25,135.25 74.89,201.83 -94.13,85.41 -210.33,49.46 -286.56,86.04zm-135.47 110.07c0,182.48 89.8,320.7 246.02,355.81 141.38,31.78 375.48,-116.68 346.65,-186.48 -25.38,-12.18 -457.2,302.96 -457.2,-228.6 166.78,-3.71 474.13,-78.56 474.13,-237.07 0,-94.21 -84.53,-169.33 -177.8,-169.33l-50.8 0c-210.41,0 -381,245.09 -381,465.67z"/>
   <path class="fil1" d="M14124.8 15625.37c0,247.76 414.87,230.47 414.87,414.87 0,151.08 -338.67,153.76 -338.67,-50.8 -194.51,0 -134.41,199.91 101.41,229.42 152.99,19.15 347.32,-63.24 347.32,-212.49l0 -33.87c0,-219.44 -414.86,-216.85 -414.86,-397.93 0,-139.67 287.86,-142.98 287.86,-33.87 0,66.7 -37.04,84.67 42.34,84.67 60.23,0 84.66,-44.42 84.66,-101.6 0,-195.51 -524.93,-172.63 -524.93,101.6z"/>
   <path class="fil1" d="M13743.8 15913.24c0,90.75 -8.24,304.8 84.67,304.8 91.38,0 243.05,-55.12 237.06,-127 -82.66,19.26 -16.35,25.4 -143.93,25.4 -90.68,0 -40.2,-518.26 -34.38,-567.83 9.96,-84.75 41.63,-183.79 -85.02,-144.46 -87,27.01 -58.4,393.36 -58.4,509.09z"/>
   <path class="fil1" d="M15259.34 15930.17c0,90.8 -4.08,287.87 84.66,287.87 64.56,0 260.63,-69.58 237.07,-110.07 -17.75,-37.01 -3.72,8.47 -143.93,8.47 -91.45,0 -38.66,-520.9 -33.98,-567.44 8.19,-81.48 36.34,-197.93 -91.25,-142.58 -62.67,27.19 -52.57,411.83 -52.57,523.75z"/>
   <path class="fil2" d="M9747.53 17242.51c0,-54.07 21.43,-85.65 59.27,-118.54l116.42 145.53c-72.65,36.87 -175.69,32.69 -175.69,-26.99zm101.6 -203.2c0,-149.65 59.27,-174.02 59.27,-101.6l0 8.46c0,42.4 -33.42,75.83 -59.27,93.14zm-50.8 -76.2c0,231.22 -61.98,91.11 -108.52,239.82 -25.1,80.22 51.75,159.04 133.92,149.64l259.57 -42.25 2.9 25.32c48.79,0 88.83,-7.59 93.13,-59.27 -127.74,0 -176.01,22.32 -122.51,-78.99 75.4,-142.77 152.64,-48.03 147.16,-126.49l-246.06 8.73 -3.16 31.45 78.36 27.79c-16.06,36.15 -27.59,80.41 -56.15,108.24l-120.87 -148.9c264.33,-214.57 -57.77,-345.78 -57.77,-135.09z"/>
   <path class="fil2" d="M3736.19 13872.77c0,164.43 142.03,127 347.14,127 96.44,0 118.53,-58.13 118.53,-127 0,-114.71 -465.67,-116.14 -465.67,0z"/>
   <path class="fil2" d="M2279.92 13195.43c0,63.71 218.78,287.87 296.34,287.87 68.81,0 93.13,-48.37 93.13,-101.6 0,-113.22 -389.47,-446.46 -389.47,-186.27z"/>
   <path class="fil2" d="M1983.59 13872.77l0 25.4c0,161.89 465.67,134.86 465.67,16.93 0,-48.52 -1.98,-118.53 -110.07,-118.53l-262.47 0c-40.75,0 -93.13,42.25 -93.13,76.2z"/>
   <path class="fil2" d="M3516.06 14423.1c0,74.36 229.2,296.34 313.27,296.34 55.9,0 93.9,-79.56 70.92,-137.69 -14.52,-36.73 -194.75,-227.97 -242.85,-241.45 -77.37,-21.68 -141.34,5.51 -141.34,82.8z"/>
   <path class="fil2" d="M2279.92 14609.37c0,56.11 30.86,110.07 84.67,110.07 59.52,0 304.8,-187.94 304.8,-304.8 0,-47.57 -50.94,-84.67 -93.13,-84.67 -69.47,0 -296.34,220.47 -296.34,279.4z"/>
   <path class="fil2" d="M3516.06 13390.17c0,45.62 49.02,93.13 93.13,93.13 53.56,0 296.34,-176.88 296.34,-304.8 0,-231.69 -389.47,101.65 -389.47,211.67z"/>
   <path class="fil2" d="M14912.2 17208.64l0 0zm0 0l12.33 -219.4 -46.18 -3.46 -36.44 339.3 41.59 17.82 191.43 -253.05 29.16 213.47 32.05 12.67 174 -225.88c0,106.59 17.29,285.12 127,211.66l-95.13 -281.25c-126.53,-23.57 -129.21,168.89 -201.21,188.12l-27.98 -197.48 -32.23 -11.89 -168.39 209.37z"/>
   <path class="fil2" d="M12135.13 17208.64l0 0zm0 0l12.33 -219.4 -46.18 -3.46 -36.44 339.3 41.59 17.82 191.43 -253.05 29.16 213.47 32.05 12.67 174 -225.88c0,106.59 17.3,285.12 127,211.66l-95.13 -281.25c-126.53,-23.57 -129.21,168.89 -201.21,188.12l-27.98 -197.48 -32.23 -11.89 -168.39 209.37z"/>
   <path class="fil2" d="M8672.26 17327.17l215.17 -237.54 28.94 213.48 30.65 13.17 173.98 -226.17c8.24,99.06 15.89,278.92 127,220.13l-95.54 -292.15 -36.31 -12.64 -157.18 202.29 -26.18 -187.54 -38.7 -17.67 -176.06 210.36c5.03,1.56 35.58,-375.25 -29.39,-193.15 -26.35,73.85 -32.74,237.19 -16.38,307.43z"/>
   <path class="fil2" d="M3008.06 12890.63l0 296.34c0,48.25 44.55,84.66 93.13,84.66 106.27,0 93.13,-177.84 93.13,-279.4 0,-167.14 -42.14,-186.26 -118.53,-186.26 -32.82,0 -67.73,46.52 -67.73,84.66z"/>
   <path class="fil2" d="M3092.72 15007.3c50.17,0 84.67,-30.72 84.67,-76.2l0 -304.8c0,-101.17 -176.94,-141.66 -178.07,67.47 -0.62,114.83 -34.46,313.53 93.4,313.53z"/>
   <path class="fil2" d="M13328.93 17208.64c0,60.74 6.83,77.12 46.66,115.23 54.38,52.03 14.46,13.27 12.61,96.44 55.28,26.52 15.45,-20.07 60.55,10.29 32.78,22.06 -3.23,40.55 -9.75,40.51l-101.52 -2.43c-0.59,85.64 177.72,66 177.72,-31.44 0,-48.27 -29.28,-58.22 -76.2,-59.27 20.89,-28.51 227.6,-30.19 237.07,-143.93 -82.8,1.84 -53.49,67.73 -220.14,67.73 -168.49,0 16.8,-406.4 186.27,-406.4 38.18,0 24.64,28.94 18.96,118.12 52.4,-3.41 74.17,-27.53 74.17,-75.78 0,-222.41 -406.4,3.81 -406.4,270.93z"/>
   <path class="fil2" d="M11059.87 17259.44c0,-139.22 194.73,-268.42 194.73,-186.27 0,79.69 -85.34,186.27 -194.73,186.27zm-59.27 -8.47c0,32.07 19.95,67.74 59.27,67.74 85.47,0 121.49,-61.1 169.33,-93.14 0,84.04 -22.12,237.07 -101.6,237.07 -131.21,0 -110.72,-57.58 -186.27,-59.27 2.32,104.06 278.28,227.68 329.25,-60.22 8.74,-49.41 12.68,-99.32 18.52,-150.81 5.51,-48.55 33.23,-115.96 33.23,-144.57 0,-141.58 -321.73,8.94 -321.73,203.2z"/>
   <path class="fil2" d="M10255.53 17013.91c0,129.45 222.41,113.79 270.93,186.26 -13.88,52 -108.51,97.17 -186.26,93.14l-92.99 -9.67c-5.18,61.32 -8.01,68.93 76.05,68.93 158.17,0 422.01,-169.75 136.6,-255.12 -68.2,-20.4 -112.88,-22.73 -145.06,-83.54 -8.95,-69.02 242.78,-157.31 245.53,-33.87 40.44,-3.37 42.33,-22.5 42.33,-59.27 0,-67.2 -146.89,-58.7 -202.51,-41.65 -57.93,17.76 -144.62,62.04 -144.62,134.79z"/>
   <path class="fil2" d="M9349.6 17267.91c0,-80.61 -1.84,-84.03 56.67,-163.46 26.55,-36.03 45.88,-63.85 104.19,-65.14 14.9,62.22 4.43,100.56 -44.72,158.47 -30.56,36.01 -52.02,70.13 -116.14,70.13zm-8.47 59.26c94.68,0 122.92,-76.06 169.33,-110.06 0,53.86 9.78,118.53 59.27,118.53 78.76,0 -9.54,-34.24 0,-169.33l18.01 -126.82c-79.63,-39.21 -53.25,-71.59 -117.71,-50.16 -148.27,49.28 -249.42,337.84 -128.9,337.84z"/>
   <path class="fil2" d="M12787.07 17267.91c-13.17,0 -33.87,0.17 -33.87,-16.94 0,-66.97 88.74,-211.66 143.93,-211.66 97.78,0 -42.89,228.6 -110.06,228.6zm-93.14 -8.47c0,33.32 27.62,67.73 67.74,67.73 77.4,0 112.59,-88.71 160.86,-101.6 0,113.01 32,125.49 93.14,93.14 -3.46,-41.51 -3.34,-16.62 -22.45,-45.29 -36.74,-55.11 -10.24,-125.88 4.78,-234.23 -27.76,-14.96 -20.77,-6.7 -44.77,-30.9 -98.95,-99.79 -259.3,152.84 -259.3,251.15z"/>
   <path class="fil2" d="M11830.33 17013.91l-93.36 5.64c1.55,61.92 19.34,53.62 76.43,53.62 -1.56,69.89 -79.95,270.94 42.33,270.94 62.27,0 154.76,-63.37 135.47,-110.07 -46.38,-19.16 -43.1,50.8 -118.53,50.8 -59.82,0 -1.38,-150.01 0,-211.67l161.09 -23.75 -0.23 -43.98 -135.45 0.36c3.2,-39.04 56.22,-138.1 -6.65,-131.47 -37.41,3.94 -43.29,102.46 -61.1,139.58z"/>
   <path class="fil2" d="M8325.13 17022.37c1.3,58.32 16.8,50.8 76.2,50.8 0,91.41 -87.36,270.94 59.27,270.94 49.4,0 122.58,-57.05 127,-110.07 -72.9,1.62 -51.29,50.8 -127,50.8 -63.8,0 1.5,-204.1 15.43,-213.17 54.17,-35.27 134.64,24.91 153.9,-57.76 -52.78,-27.93 -67.66,-8.47 -143.93,-8.47 8.14,-34.97 25.4,-68.65 25.4,-110.07 0,-14.41 -27.72,-30.71 -46.05,-13.23 -13.02,12.41 -19.95,46.81 -24.93,69.26 -20.57,92.87 -27.32,50.48 -115.29,70.97z"/>
   <path class="fil2" d="M14446.53 17242.51c0,41.32 26.51,93.13 67.74,93.13 69.98,0 112.85,-89.56 152.4,-118.53 1.58,70.93 20.5,158.7 93.13,110.06 -19.36,-72.51 -33.86,29.25 -33.86,-160.86 0,-79.23 45.3,-100.97 0,-143.94 -64.49,34.12 -20.44,31.21 -84.91,143.69 -26.7,46.57 -61.12,101.85 -135.23,101.85l0 -76.2c0,-40.29 86.49,-226.34 -0.43,-187.49 -31.34,14.01 -58.84,216.7 -58.84,238.29z"/>
   <path class="fil2" d="M11373.13 17242.51c0,47.78 29.31,93.13 67.74,93.13 66.81,0 118.91,-88.48 152.4,-127 0,168.34 56.37,133.59 84.66,127 -1.12,-50.41 -39.06,-66.36 -31.8,-141.33 5.04,-52.04 23.34,-109.04 23.34,-163.47 -62.63,-13.26 -46.48,20.99 -101.48,127.13 -26.51,51.18 -57.6,109.94 -135.59,109.94 -4.66,-55.98 -8.34,-81.5 11.35,-141.06 12.73,-38.53 45.63,-93.77 11,-118.95 -47.11,-34.28 -49.09,51.13 -57.83,89.06 -9.34,40.55 -23.79,94.39 -23.79,145.55z"/>
   <path class="fil2" d="M10763.53 17284.84c-54.35,0 -50.8,-21.13 -50.8,-84.67 0,-143.36 177.8,-223.17 177.8,-67.73 0,69.73 -60.78,152.4 -127,152.4zm-16.93 59.27c171.25,0 292.12,-296.47 111.55,-349.25 -173.25,-50.64 -305.67,349.25 -111.55,349.25z"/>
   <path class="fil2" d="M15725 17157.84c18.33,-38.2 13.53,-49.5 44.08,-82.93 13.75,-15.06 51.1,-60.2 74.58,-36.72 32.2,32.2 -84.93,111.79 -118.66,119.65zm-67.73 67.73c0,183.42 276.45,106.94 279.4,-25.4 -77.11,6.42 -53.99,104.47 -211.67,67.74 -5.43,-22.71 -8.46,-15.96 -8.46,-33.87 0,-59.85 219.38,-67.05 177.8,-245.53 -120.77,-57.95 -237.07,115.2 -237.07,237.06z"/>
   <path class="fil2" d="M13896.2 17284.84c-59.48,0 -67.73,2.76 -67.73,-76.2 0,-139.61 177.8,-246.4 177.8,-67.73 0,59.52 -67.64,143.93 -110.07,143.93zm-127 -76.2c0,255.89 296.33,104.39 296.33,-84.67 0,-99.83 -80.81,-158.38 -169.54,-118.91 -56.94,25.33 -126.79,122.76 -126.79,203.58z"/>
   <path class="fil2" d="M14124.8 17030.84c0,55.62 138.34,28.33 186.13,24.07 -62.49,121.78 -240.32,236.69 -245.4,297.66 104,24.9 46.09,-50.8 254,-50.8 33.78,0 54.55,18.39 84.67,25.4 32.56,-139.73 -97.62,-61.62 -203.2,-59.26 13.57,-50.83 188.94,-184.4 194.73,-254 -43.35,-22.95 -99.49,0 -203.2,0 -30.84,0 -67.73,-36.85 -67.73,16.93z"/>
   <path class="fil2" d="M16046.74 17344.11c46.73,0 20.3,-76.95 67.97,-160.63 105.94,-185.99 121.87,-111.74 186.03,-110.31 23.74,-101.93 -84.62,-126.46 -187.64,24.03 -19.84,28.99 -28.07,61.47 -49.43,86.04 0,-60.52 16.36,-98.83 22.76,-148.24 8.19,-63.27 -54.3,-62.35 -65.37,12.48 -8.54,57.7 -41.33,296.63 25.68,296.63z"/>
   <path class="fil2" d="M7901.8 17115.51c0,62.73 137.44,79.45 152.4,135.46 -51.23,69.92 -186.27,-0.65 -186.27,59.27 0,71.93 245.53,25.26 245.53,-76.2 0,-67.31 -152.4,-81.24 -152.4,-143.93 0,-28.17 83.81,-67.74 93.14,-67.74 34.83,0 59.26,28.43 59.26,-25.4 0,-74.08 -211.66,-4.17 -211.66,118.54z"/>
   <path class="fil2" d="M15538.74 17352.57c48.87,-32.73 14.14,-158.78 35.21,-303.45 7.5,-51.49 20.47,-90.15 32.65,-136.69 8.64,-33.04 35.57,-133.52 -17.04,-111.22 -62.86,26.64 -77.53,346.05 -88.48,420.89 -7.88,53.86 -8.79,118.07 37.66,130.47z"/>
   <path class="fil1" d="M15284.74 15066.57c0,56.11 30.85,110.07 84.66,110.07 45.81,0 93.14,-60.5 93.14,-101.6 0,-150.66 -177.8,-104 -177.8,-8.47z"/>
   <path class="fil2" d="M7724 17217.11c0,91.16 -8.89,79.98 16.93,118.53 39.02,-3.25 23.08,-6.84 50.8,-25.4 -10.96,-131.64 -19.1,-101.17 13.22,-283.11 20.96,-117.93 45.96,-102.53 3.71,-165.62 -55.05,29.13 -39.08,22.51 -61.84,158.29 -4.02,23.99 -7.7,74.3 -11.79,98.27 -6.46,37.8 -11.03,56.69 -11.03,99.04z"/>
   <path class="fil1" d="M13769.2 15066.57c0,168.78 177.8,113.05 177.8,8.47 0,-51.77 -36.79,-100.12 -83.62,-98.97 -41.09,1.01 -94.18,47.54 -94.18,90.5z"/>
   <path class="fil1" d="M9713.66 15066.57c0,155.91 169.34,140.58 169.34,-16.93 0,-88.56 -169.34,-94.38 -169.34,16.93z"/>
   <path class="fil1" d="M9383.46 15066.57c0,159.91 169.34,132.42 169.34,-8.47 0,-109.22 -169.34,-94.63 -169.34,8.47z"/>
   <path class="fil2" d="M16368.47 17344.11c60.73,-40.67 -2.82,-75.86 40.51,-238.89 25.76,-96.92 31.63,-83.52 -15.11,-108.25 -40.19,26.92 -36.89,75.64 -53.39,175.21 -12.34,74.47 -32.4,155.8 27.99,171.93z"/>
   <path class="fil2" d="M8172.73 17293.31c0,25.99 7.84,50.8 33.87,50.8 64.79,0 -1.55,-54.68 47.27,-240.61 1.45,-5.51 47.48,-130.53 -25.44,-100.83 -33.62,13.69 -55.7,260.38 -55.7,290.64z"/>
   <path class="fil2" d="M11136.07 16844.57c0,37.7 70.03,147.83 179.09,77.5 14.84,-9.57 49.51,-40.04 49.51,-60.56 0,-32.38 2.59,-3.09 -8.47,-25.4 -18.83,5.02 -117.19,116.94 -169.1,25.16 -18.64,-32.95 -4.88,-37.97 -42.57,-42.1 -5.8,10.33 -8.46,9.06 -8.46,25.4z"/>
   <path class="fil2" d="M16402.34 16844.57c0,24.71 11.38,43.91 16.93,67.74 48.73,-4.06 67.73,-37.68 67.73,-84.67 0,-14.79 8.28,1.23 -23.04,-19.29l-10.82 -6.11c-13.37,7.07 -50.8,25.28 -50.8,42.33z"/>
   <path class="fil2" d="M13862.33 16929.24c0,7.64 13.3,18.88 20.41,21.92 13.99,5.98 31.62,3.48 47.33,3.48 15.39,-72.68 -67.74,-84.52 -67.74,-25.4z"/>
   <path class="fil2" d="M14539.67 16929.24c0,22.33 67.73,45.96 67.73,0 0,-46.25 -67.73,-53.93 -67.73,0z"/>
   <path class="fil2" d="M13989.33 16895.37c0,52.55 -1.99,50.8 50.8,50.8 16.58,-31.33 16.82,-23.44 8.47,-59.26 -26.82,0 -40.27,1.09 -59.27,8.46z"/>
   <path class="fil2" d="M14658.2 16912.31l17.4 33.61c55.34,0.84 50.34,2.8 50.34,-59.01 -36.29,0 -42.84,-2.08 -67.74,25.4z"/>
  </g>
 </g>
</svg>
